<svg id="fav" xmlns="http://www.w3.org/2000/svg" version="1.1" viewBox="0 0 37 37">
  <!-- Black background with rounded corners -->
  <path fill="#000" d="M10,0h17c5.52,0,10,4.6,10,10.28v16.44c0,5.68-4.48,10.28-10,10.28H10C4.48,37,0,32.4,0,26.72V10.28C0,4.6,4.48,0,10,0Z"/>
  <!-- White 'u' like shape -->
  <path fill="#fff" d="M29.03,33.96v-3.81c-2.02,2.93-4.76,4.39-8.23,4.39-1.53,0-2.96-.29-4.28-.88-1.33-.59-2.31-1.32-2.95-2.21-.64-.89-1.09-1.97-1.36-3.26-.18-.86-.27-2.23-.27-4.1V8.04h4.39v14.38c0,2.29.09,3.84.27,4.64.28,1.16.86,2.06,1.76,2.72.9.66,2,.99,3.32.99s2.56-.34,3.71-1.01,1.97-1.6,2.45-2.76c.48-1.16.72-2.85.72-5.06v-13.89h4.39v25.93h-3.93Z"/>
  <!-- Purple 'n' like shape -->
  <path fill="#714eff" d="M4.04,28.96V3.04h3.96v3.69c1.9-2.85,4.66-4.27,8.25-4.27,1.56,0,3,.28,4.31.84,1.31.56,2.29,1.3,2.94,2.21.65.91,1.11,1.99,1.37,3.25.16.81.24,2.24.24,4.27v15.94h-4.39v-15.77c0-1.79-.17-3.13-.51-4.02-.34-.89-.95-1.6-1.82-2.12-.87-.53-1.89-.79-3.06-.79-1.87,0-3.49.59-4.85,1.78-1.36,1.19-2.04,3.44-2.04,6.76v14.16h-4.39Z"/>
</svg>