<svg width="454" height="450" viewBox="0 0 454 450" fill="none" xmlns="http://www.w3.org/2000/svg"><g clip-path="url(#clip0_1269_1419)"><path d="M316.656 63.566H140.226V436.174H316.656V63.566Z" fill="#080812"></path><path d="M294.646 52.954H162.236C144.219 52.954 129.614 67.559 129.614 85.576V99.484H126.74C126.623 99.484 126.528 99.579 126.528 99.696V102.136C126.528 102.252 126.623 102.348 126.74 102.348H129.614V112.332H126.74C126.623 112.332 126.528 112.427 126.528 112.544V114.983C126.528 115.1 126.623 115.195 126.74 115.195H129.614V138.867H127.231C126.843 138.867 126.528 139.182 126.528 139.57V171.085C126.528 171.473 126.843 171.788 127.231 171.788H129.614V184.081H127.231C126.843 184.081 126.528 184.396 126.528 184.784V216.298C126.528 216.686 126.843 217 127.231 217H129.614V414.164C129.614 432.182 144.219 446.787 162.236 446.787H294.646C312.664 446.787 327.268 432.182 327.268 414.164V85.576C327.268 67.559 312.663 52.954 294.646 52.954ZM316.655 414.164C316.655 426.301 306.782 436.175 294.645 436.175H162.235C150.099 436.175 140.225 426.301 140.225 414.164V85.576C140.225 73.439 150.099 63.566 162.235 63.566H174.375L174.471 63.685C175.55 65.013 176.259 66.584 176.682 68.241C177.646 72.01 181.064 74.797 185.134 74.797H271.746C275.816 74.797 279.234 72.011 280.197 68.241C280.621 66.584 281.33 65.013 282.408 63.685L282.505 63.566H294.645C306.782 63.566 316.655 73.44 316.655 85.576V414.164Z" fill="#714eff"></path><path d="M325.387 344.658L325.324 344.661C332.973 336.669 329.378 327.84 327.992 325.154C327.988 325.148 327.986 325.144 327.984 325.139C327.715 324.621 327.523 324.312 327.523 324.312L327.592 324.326C325.374 319.955 324.099 315.027 324.099 309.79C324.099 300.892 327.706 292.837 333.537 287.006C338.894 279.913 334.841 270.485 334.841 270.485H334.853C334.016 268.114 333.538 265.573 333.538 262.914C333.538 250.33 343.739 240.13 356.323 240.13C368.907 240.13 379.108 250.33 379.108 262.914C379.108 265.573 378.628 268.114 377.792 270.485H377.805C377.805 270.485 373.749 279.914 379.109 287.006C384.938 292.837 388.545 300.892 388.545 309.79C388.545 315.023 387.272 319.949 385.057 324.316L385.08 324.312C385.08 324.312 385.041 324.375 384.98 324.476C384.798 324.831 384.617 325.187 384.421 325.536C382.989 328.494 380.233 336.388 386.536 343.788C386.73 344.017 386.93 344.24 387.118 344.473C387.177 344.535 387.219 344.598 387.278 344.661L387.258 344.66C392.707 351.453 395.987 360.064 395.987 369.452C395.987 391.359 378.228 409.117 356.323 409.117C334.417 409.117 316.657 391.359 316.657 369.452C316.655 360.063 319.935 351.451 325.387 344.658Z" fill="#ffffff" fill-opacity="0.1"></path><path d="M344.66 361.777L354.376 371.389V337.615L342.444 325.812C341.826 325.2 341.819 324.203 342.43 323.583C343.043 322.963 344.04 322.96 344.659 323.57L354.375 333.181V286.591C354.375 285.72 355.079 285.015 355.951 285.015C356.822 285.015 357.526 285.72 357.526 286.591V314.668L366.974 305.273C367.589 304.661 368.587 304.661 369.202 305.28C369.814 305.896 369.814 306.894 369.196 307.508L357.526 319.112V353.034L367.968 342.485C368.576 341.865 369.574 341.862 370.197 342.472C370.814 343.085 370.821 344.082 370.209 344.701L357.526 357.513V447.501C357.526 448.372 356.822 449.077 355.951 449.077C355.079 449.077 354.375 448.372 354.375 447.501V375.822L342.443 364.016C341.825 363.405 341.818 362.408 342.429 361.788C343.044 361.17 344.041 361.167 344.66 361.777Z" fill="#714eff"></path><path d="M413.214 410.855L413.191 410.856C415.992 407.931 414.674 404.699 414.168 403.716C414.167 403.714 414.166 403.712 414.164 403.71C414.066 403.521 413.996 403.407 413.996 403.407L414.021 403.413C413.21 401.812 412.742 400.009 412.742 398.092C412.742 394.835 414.064 391.886 416.197 389.752C418.158 387.155 416.675 383.704 416.675 383.704H416.679C416.373 382.836 416.198 381.905 416.198 380.933C416.198 376.328 419.932 372.593 424.538 372.593C429.145 372.593 432.879 376.327 432.879 380.933C432.879 381.906 432.704 382.836 432.398 383.704H432.402C432.402 383.704 430.919 387.155 432.88 389.752C435.014 391.886 436.335 394.835 436.335 398.092C436.335 400.007 435.867 401.81 435.058 403.409L435.067 403.407C435.067 403.407 435.051 403.43 435.03 403.468C434.964 403.598 434.897 403.728 434.825 403.855C434.302 404.938 433.292 407.828 435.6 410.537C435.671 410.621 435.743 410.703 435.813 410.787C435.834 410.81 435.849 410.834 435.872 410.856H435.864C437.86 413.342 439.059 416.496 439.059 419.931C439.059 427.949 432.559 434.451 424.539 434.451C416.521 434.451 410.021 427.949 410.021 419.931C410.019 416.494 411.218 413.342 413.214 410.855Z" fill="#ffffff" fill-opacity="0.1"></path><path d="M420.269 417.122L423.826 420.641V408.278L419.459 403.958C419.231 403.734 419.23 403.369 419.455 403.144C419.679 402.915 420.043 402.915 420.269 403.138L423.826 406.657V389.603C423.826 389.285 424.084 389.026 424.402 389.026C424.721 389.026 424.979 389.285 424.979 389.603V399.879L428.437 396.441C428.664 396.217 429.028 396.217 429.253 396.443C429.477 396.669 429.477 397.034 429.251 397.258L424.979 401.505V413.922L428.8 410.061C429.024 409.833 429.389 409.832 429.616 410.057C429.843 410.281 429.845 410.646 429.622 410.872L424.978 415.561V448.5C424.978 448.819 424.72 449.078 424.401 449.078C424.083 449.078 423.825 448.819 423.825 448.5V422.264L419.458 417.943C419.23 417.719 419.229 417.354 419.454 417.127C419.678 416.899 420.042 416.898 420.269 417.122Z" fill="#714eff"></path><path d="M444.372 450H2.85096C2.24896 450 1.76196 449.513 1.76196 448.912C1.76196 448.31 2.24896 447.822 2.85096 447.822H444.372C444.974 447.822 445.461 448.31 445.461 448.912C445.461 449.513 444.974 450 444.372 450Z" fill="#bdbdbd80"></path><path d="M303.18 147.72H150.617C148.546 147.72 146.867 146.041 146.867 143.97V99.078C146.867 97.008 148.546 95.329 150.617 95.329H303.18C305.251 95.329 306.93 97.008 306.93 99.078V143.97C306.93 146.041 305.251 147.72 303.18 147.72Z" fill="#ffffff" fill-opacity="0.15"></path><path d="M289.009 117.208H206.003C205.449 117.208 205 116.759 205 116.205V113.44C205 112.886 205.449 112.437 206.003 112.437H289.009C289.564 112.437 290.013 112.886 290.013 113.44V116.205C290.013 116.759 289.563 117.208 289.009 117.208Z" fill="#333e53"></path><path d="M254.411 128.411H206.002C205.448 128.411 204.998 127.962 204.998 127.408V124.642C204.998 124.089 205.448 123.64 206.002 123.64H254.411C254.965 123.64 255.413 124.089 255.413 124.642V127.408C255.413 127.962 254.965 128.411 254.411 128.411Z" fill="#333e53"></path><path d="M194.074 121.524C194.074 129.888 187.293 136.669 178.929 136.669C170.564 136.669 163.784 129.888 163.784 121.524C163.784 113.159 170.564 106.379 178.929 106.379C187.293 106.38 194.074 113.159 194.074 121.524Z" fill="#333e53"></path><path d="M303.18 293.612H150.617C148.546 293.612 146.867 291.933 146.867 289.862V244.97C146.867 242.9 148.546 241.221 150.617 241.221H303.18C305.251 241.221 306.93 242.9 306.93 244.97V289.862C306.93 291.934 305.251 293.612 303.18 293.612Z" fill="#ffffff" fill-opacity="0.1"></path><path d="M289.5 263.066H205.832C205.278 263.066 204.829 262.617 204.829 262.063V259.26C204.829 258.706 205.278 258.257 205.832 258.257H289.5C290.054 258.257 290.503 258.706 290.503 259.26V262.063C290.503 262.617 290.054 263.066 289.5 263.066Z" fill="#333e53" fill-opacity="0.75"></path><path d="M254.632 274.356H205.833C205.279 274.356 204.83 273.907 204.83 273.353V270.551C204.83 269.997 205.279 269.548 205.833 269.548H254.632C255.187 269.548 255.636 269.997 255.636 270.551V273.353C255.636 273.907 255.187 274.356 254.632 274.356Z" fill="#333e53" fill-opacity="0.75"></path><path d="M193.818 267.416C193.818 275.846 186.985 282.68 178.555 282.68C170.126 282.68 163.293 275.846 163.293 267.416C163.293 258.987 170.126 252.153 178.555 252.153C186.985 252.153 193.818 258.987 193.818 267.416Z" fill="#333e53" fill-opacity="0.75"></path><path d="M303.18 220.666H150.617C148.546 220.666 146.867 218.987 146.867 216.916V172.024C146.867 169.954 148.546 168.275 150.617 168.275H303.18C305.251 168.275 306.93 169.954 306.93 172.024V216.916C306.93 218.987 305.251 220.666 303.18 220.666Z" fill="#ffffff" fill-opacity="0.1"></path><path d="M289.5 190.12H205.832C205.278 190.12 204.829 189.671 204.829 189.117V186.315C204.829 185.761 205.278 185.311 205.832 185.311H289.5C290.054 185.311 290.503 185.761 290.503 186.315V189.117C290.503 189.671 290.054 190.12 289.5 190.12Z" fill="#333e53" fill-opacity="0.75"></path><path d="M254.632 201.41H205.833C205.279 201.41 204.83 200.961 204.83 200.407V197.605C204.83 197.051 205.279 196.602 205.833 196.602H254.632C255.187 196.602 255.636 197.051 255.636 197.605V200.407C255.636 200.961 255.187 201.41 254.632 201.41Z" fill="#333e53" fill-opacity="0.75"></path><path d="M193.818 194.47C193.818 202.899 186.985 209.733 178.555 209.733C170.126 209.733 163.293 202.899 163.293 194.47C163.293 186.041 170.126 179.207 178.555 179.207C186.985 179.207 193.818 186.041 193.818 194.47Z" fill="#333e53" fill-opacity="0.75"></path><path d="M152.226 48.115H12C12 48.115 22.274 6 58.54 6C85.412 6 99.359 22.993 104.786 31.801C115.385 27.655 138.204 22.623 152.226 48.115Z" fill="#ffffff" fill-opacity="0.1"></path><path d="M356.483 113.798C359.136 113.798 361.623 114.517 363.781 115.764C367.903 108.575 375.51 103.734 384.235 103.734C392.384 103.734 399.57 107.946 403.843 114.359C406.097 106.634 413.079 101 421.353 101C430.741 101 438.466 108.256 439.507 117.591C440.261 117.47 441.029 117.388 441.819 117.388C447.547 117.388 452.509 120.705 455.002 125.561H342C343.543 118.822 349.435 113.798 356.483 113.798Z" fill="#ffffff" fill-opacity="0.1"></path><path d="M120.708 345.764L126.178 340.278L126.985 332.902C127.027 332.196 127.195 331.633 127.893 331.521L128.251 331.501C128.888 331.482 129.492 331.947 129.626 332.771L130.434 348.316C130.482 349.252 129.819 350.075 128.894 350.224L121.621 351.402L120.708 345.764Z" fill="#E8C0A3"></path><path d="M91.811 441.644C91.929 441.085 95.848 427.145 95.848 427.145L103.278 427.483L99.332 441.995L91.811 441.644Z" fill="#FFDFC4"></path><path d="M112.222 447.673L91.48 446.82L91.769 440.456L106.092 441.045C109.615 441.182 112.359 444.15 112.222 447.673Z" fill="#b3b9cd"></path><path d="M3.30908 431.713C3.83808 431.5 17.7031 427.145 17.7031 427.145L21.5591 433.504L7.20608 438.154L3.30908 431.713Z" fill="#FFDFC4"></path><path d="M63.921 376.648L110.375 381.917L111.267 382.018C115.219 382.465 118.059 386.033 117.61 389.984C117.556 390.463 117.442 390.963 117.301 391.406L105.385 429.184L93.013 428.356L102.954 387.334L109.88 396.823L63.179 394.297L63.921 376.648Z" fill="#a0a3bd"></path><path d="M72.1179 389.549L54.1039 424.82L53.5659 425.808C52.6939 427.409 51.2189 428.496 49.5869 428.938L18.6859 437.154L15.1909 426.271L45.0899 414.937L40.5749 419.055L52.7219 380.784L72.1179 389.549Z" fill="#b3b9cd"></path><path d="M5.401 430.867L9.454 439.544V444.009C9.454 444.009 13.63 444.746 14.49 447.571H4.91L0 432.238L5.401 430.867Z" fill="#b3b9cd"></path><path d="M97.962 360.947C97.887 360.947 97.813 360.947 97.738 360.943L73.262 359.898L73.71 349.435L97.197 350.439L122.292 342.631L123.248 352.535L99.662 360.664C99.114 360.853 98.539 360.947 97.962 360.947Z" fill="#714eff95"></path><path d="M72.8409 346.376L71.9999 345.793L69.8809 347.379C65.9139 350.35 62.9379 354.45 61.3449 359.143L59.4059 363.4L49.2329 385.629L73.5029 389.788C73.5029 389.788 76.7909 378.556 78.6779 375.054C84.0549 365.078 82.1599 352.825 72.8409 346.376Z" fill="#714eff"></path><path d="M73.769 342.559L71.042 347.543L76.637 352.833L80.397 342.651L73.769 342.559Z" fill="#FFDFC4"></path><path d="M89.003 333.793L86.774 332.668L85.283 335.606L87.468 336.276L89.02 335.452C89.689 335.098 89.679 334.135 89.003 333.793Z" fill="#FFDFC4"></path><path d="M87.355 338.484C85.745 343.74 80.179 346.696 74.923 345.086C69.667 343.477 66.71 337.91 68.321 332.653C69.931 327.396 75.497 324.441 80.753 326.05C86.009 327.662 88.965 333.229 87.355 338.484Z" fill="#FFDFC4"></path><g mask="url(#mask0_1269_1419)"><path d="M81.971 323.211L68.851 346.115L65.385 329.029L81.971 323.211Z" fill="#5e647f"></path></g><path d="M76.152 335.959C75.701 337.432 74.142 338.259 72.67 337.809C71.198 337.358 70.37 335.798 70.821 334.327C71.272 332.854 72.831 332.027 74.303 332.477C75.775 332.928 76.603 334.487 76.152 335.959Z" fill="#FFDFC4"></path><path d="M274.187 367.098H121.624C119.553 367.098 117.874 365.419 117.874 363.348V318.457C117.874 316.387 119.553 314.707 121.624 314.707H274.186C276.256 314.707 277.936 316.387 277.936 318.457V363.348C277.937 365.419 276.257 367.098 274.187 367.098Z" fill="#ffffff" fill-opacity="0.1"></path><path d="M259.784 336.586H176.777C176.223 336.586 175.774 336.137 175.774 335.583V332.818C175.774 332.263 176.223 331.814 176.777 331.814H259.784C260.339 331.814 260.787 332.263 260.787 332.818V335.583C260.787 336.137 260.339 336.586 259.784 336.586Z" fill="#333e53" fill-opacity="0.75"></path><path d="M225.186 347.789H176.778C176.224 347.789 175.775 347.34 175.775 346.786V344.02C175.775 343.466 176.224 343.017 176.778 343.017H225.186C225.74 343.017 226.189 343.466 226.189 344.02V346.786C226.188 347.34 225.74 347.789 225.186 347.789Z" fill="#333e53" fill-opacity="0.75"></path><path d="M164.849 340.902C164.849 349.267 158.069 356.047 149.704 356.047C141.34 356.047 134.559 349.268 134.559 340.902C134.559 332.539 141.34 325.757 149.704 325.757C158.069 325.758 164.849 332.539 164.849 340.902Z" fill="#333e53" fill-opacity="0.75"></path><path d="M119.275 360.053L124.745 354.567L125.552 347.19C125.595 346.485 125.762 345.923 126.46 345.809L126.818 345.79C127.455 345.77 128.059 346.236 128.193 347.06L129.001 362.604C129.049 363.541 128.385 364.364 127.461 364.512L120.188 365.69L119.275 360.053Z" fill="#FFDFC4"></path><path d="M94.688 375.292C93.817 375.292 92.954 375.075 92.18 374.653L69.579 362.326C67.04 360.941 66.105 357.76 67.49 355.222C68.875 352.683 72.055 351.747 74.593 353.132L95.599 364.588L121.447 356.694L123.208 367.016L95.568 375.216C95.275 375.268 94.981 375.292 94.688 375.292Z" fill="#714eff"></path></g><defs><clipPath id="clip0_1269_1419"><rect width="453.796" height="450" fill="white"></rect></clipPath></defs></svg>