<svg width="42" height="42" fill="none" xmlns="http://www.w3.org/2000/svg"><rect x="0.5" y="0.5" width="41" height="41" rx="5.5" fill="#fff"></rect><path d="M0 6a6 6 0 0 1 6-6h30a6 6 0 0 1 6 6v2H0V6Z" fill="#FD718A"></path><circle cx="7" cy="4" r="1" fill="#fff"></circle><circle cx="10" cy="4" r="1" fill="#fff"></circle><circle cx="13" cy="4" r="1" fill="#fff"></circle><path opacity="0.25" d="M9.014 29.7a5.212 5.212 0 0 0 7.586 7.048 9.472 9.472 0 0 1-7.586-7.049Z" fill="#FD718A"></path><path opacity="0.5" d="M12.413 22.187a7.805 7.805 0 0 0 10.894 11.138 11.472 11.472 0 0 1-10.894-11.138Z" fill="#FD718A"></path><path d="M23.876 12a9.854 9.854 0 1 1 0 19.707 9.854 9.854 0 0 1 0-19.707Z" fill="#FD718A"></path><rect x="0.5" y="0.5" width="41" height="41" rx="5.5" stroke="#FD718A"></rect></svg>