<svg width="42" height="42" fill="none" xmlns="http://www.w3.org/2000/svg"><path d="M39.033 0 35.66 37.796 20.494 42 5.37 37.801 2 0h37.033Z" fill="#264DE4"></path><path d="M32.771 35.389 35.654 3.09H20.517v35.695L32.77 35.39Z" fill="#2965F1"></path><path d="m9.726 17.11.416 4.637h10.375v-4.636H9.727ZM20.517 7.727H8.89l.422 4.636h11.204V7.727ZM20.517 33.975V29.15l-.02.006-5.164-1.395-.33-3.697h-4.654l.65 7.28 9.496 2.636.022-.006Z" fill="#EBEBEB"></path><path d="m26.21 21.747-.538 6.013-5.171 1.395v4.824l9.504-2.634.07-.784 1.09-12.205.113-1.245.837-9.384H20.5v4.636h6.533l-.422 4.748H20.5v4.636h5.709Z" fill="#fff"></path></svg>