<svg width="42" height="42" fill="none" xmlns="http://www.w3.org/2000/svg"><path d="M14 42c3.864 0 7-3.136 7-7v-7h-7c-3.864 0-7 3.136-7 7s3.136 7 7 7Z" fill="#0ACF83"></path><path d="M7 21c0-3.864 3.136-7 7-7h7v14h-7c-3.864 0-7-3.136-7-7Z" fill="#A259FF"></path><path d="M7 7c0-3.864 3.136-7 7-7h7v14h-7c-3.864 0-7-3.136-7-7Z" fill="#F24E1E"></path><path d="M21 0h7c3.864 0 7 3.136 7 7s-3.136 7-7 7h-7V0Z" fill="#FF7262"></path><path d="M35 21c0 3.864-3.136 7-7 7s-7-3.136-7-7 3.136-7 7-7 7 3.136 7 7Z" fill="#1ABCFE"></path></svg>