<svg width="42" height="42" fill="none" xmlns="http://www.w3.org/2000/svg"><g clip-path="url(#css-flexbox-grid_svg__a)"><path fill-rule="evenodd" clip-rule="evenodd" d="M38.571 18h-3.428a3.429 3.429 0 0 0-3.429 3.429v3.428a3.429 3.429 0 0 0 3.429 3.429h3.428A3.429 3.429 0 0 0 42 24.857V21.43A3.429 3.429 0 0 0 38.571 18Zm0 13.714h-3.428a3.429 3.429 0 0 0-3.429 3.429v3.428A3.429 3.429 0 0 0 35.143 42h3.428A3.429 3.429 0 0 0 42 38.571v-3.428a3.429 3.429 0 0 0-3.429-3.429Zm-13.714 0H21.43A3.429 3.429 0 0 0 18 35.143v3.428A3.429 3.429 0 0 0 21.429 42h3.428a3.429 3.429 0 0 0 3.429-3.429v-3.428a3.429 3.429 0 0 0-3.429-3.429Zm0-13.714H21.43A3.429 3.429 0 0 0 18 21.429v3.428a3.429 3.429 0 0 0 3.429 3.429h3.428a3.429 3.429 0 0 0 3.429-3.429V21.43A3.429 3.429 0 0 0 24.857 18Z" fill="#fff"></path><path fill-rule="evenodd" clip-rule="evenodd" d="M38.571 18h-3.428a3.429 3.429 0 0 0-3.429 3.429v3.428a3.429 3.429 0 0 0 3.429 3.429h3.428A3.429 3.429 0 0 0 42 24.857V21.43A3.429 3.429 0 0 0 38.571 18Zm0 13.714h-3.428a3.429 3.429 0 0 0-3.429 3.429v3.428A3.429 3.429 0 0 0 35.143 42h3.428A3.429 3.429 0 0 0 42 38.571v-3.428a3.429 3.429 0 0 0-3.429-3.429Zm-13.714 0H21.43A3.429 3.429 0 0 0 18 35.143v3.428A3.429 3.429 0 0 0 21.429 42h3.428a3.429 3.429 0 0 0 3.429-3.429v-3.428a3.429 3.429 0 0 0-3.429-3.429Zm0-13.714H21.43A3.429 3.429 0 0 0 18 21.429v3.428a3.429 3.429 0 0 0 3.429 3.429h3.428a3.429 3.429 0 0 0 3.429-3.429V21.43A3.429 3.429 0 0 0 24.857 18Z" fill="#EB54E5" fill-opacity="0.5"></path><path d="M0 6.5C0 2.91 2.82 0 6.3 0h29.4C39.18 0 42 2.91 42 6.5V13H0V6.5Z" fill="#EB54E5"></path><path d="M0 17v18.75C0 39.202 2.91 42 6.5 42H13V17H0Z" fill="#0C86F7"></path></g><defs><clipPath id="css-flexbox-grid_svg__a"><path fill="#fff" d="M0 0h42v42H0z"></path></clipPath></defs></svg>