<svg width="42" height="42" fill="none" xmlns="http://www.w3.org/2000/svg"><g clip-path="url(#build-tools_svg__a)"><path d="m14 5 14 7.92v15.843l-14 7.92-14-7.92V12.919L14 5Z" fill="#fff"></path><path d="m25.501 28.214-11.036 6.25v-4.861l6.878-3.788 4.158 2.399Zm.756-.682v-13.06l-4.037 2.33v8.4l4.037 2.33Zm-23.8.682 11.036 6.244v-4.86l-6.879-3.783-4.157 2.399Zm-.756-.682v-13.06l4.036 2.33v8.4l-4.036 2.33Zm.47-13.905 11.322-6.403v4.702l-7.254 3.989-.058.031-4.01-2.319Zm23.61 0L14.465 7.224v4.702l7.248 3.994.058.032 4.01-2.325Z" fill="#8ED6FB"></path><path d="m13.493 28.494-6.784-3.735v-7.391l6.784 3.914v7.212Zm.972 0 6.783-3.73v-7.396l-6.783 3.914v7.212ZM7.164 16.512l6.815-3.746 6.81 3.746-6.81 3.93-6.815-3.93Z" fill="#1C78C0"></path><path d="m37.582 40.708.403-6.71 1.112-1.898s-2.531 1.035-6.768 1.035-6.73-1.016-6.73-1.016l1.247 2.07.44 6.52c0 .698 2.305 1.265 5.148 1.265 2.843 0 5.148-.567 5.148-1.266Zm-1.27-31.336.845-3.341 4.681-4.925L40.604.055l-4.956 5.247-.98 3.991a65.772 65.772 0 0 0-2.218-.037c-5.219 0-9.45.595-9.45 1.329 0 .733 4.231 1.328 9.45 1.328 5.22 0 9.45-.595 9.45-1.328 0-.54-2.294-1.005-5.588-1.213Z" fill="#D34A47"></path><path d="M35.82 11.243s-.183.04-.721.043c-.54.002-.922-.003-1.074-.142a.24.24 0 0 1-.063-.162c0-.095.068-.151.154-.186l.082.128c-.036.012-.056.026-.056.042 0 .072.55.122.972.116.422-.005.931-.04.932-.11 0-.022-.039-.043-.106-.059l.081-.127c.11.034.205.1.205.213-.001.193-.247.222-.406.244Z" fill="#fff"></path><path d="M41.829 1.115c.117-.136-.061-.484-.4-.777-.337-.292-.707-.42-.825-.284s.061.484.4.777c.337.293.707.42.825.284Zm-4.472 23.202c-.111-1.067 2.334-2.613 1.707-2.662-1.351.077-2.024 1.583-2.703 3.16-.25.579-1.102 3.044-1.661 2.74-.559-.303.724-2.33 1.084-3.534-.415.304-1.937 1.487-2.33.38-.63.535-1.978.825-1.826-.582-.335.595-1.089 1.425-1.993 1.08-1.187-.453.688-4.235 1.154-4.044.467.19-.094 1.052-.24 1.387-.323.736-.696 1.662-.447 1.851.427.325 1.588-1.228 1.614-1.262.217-.287.836-2.164 1.335-1.949.498.216-1.244 2.694-.593 3.186.132.1.67-.06.997-.415.211-.229.138-.736.844-2.418.705-1.682 1.334-3.777 1.818-3.618.484.16.085 1.235-.089 1.636-.814 1.881-2.222 4.99-1.558 4.754.664-.235 1.01-.249 1.66-1.01.65-.761.62-2.015 1.054-1.988.434.027.36.428.256.735.427-.489 2.022-1.517 2.408-.498.456 1.205-2.284 2.947-1.6 2.858.665-.087 1.744-.77 2.205-1.391l1.268-11.4s-1.276 1.056-9.393 1.056c-8.118 0-9.262-1.034-9.262-1.034l1.08 10.405c.572-1.628 1.933-4.922 4.078-4.812.976.05 2.278 1.93 1.162 1.993-.472.027-.52-.938-1.079-1.08-.403-.102-.965.226-1.328.582-.724.708-2.282 3.504-2.076 4.898.262 1.777 2.452-.617 2.823-1.328.26-.501.437-1.985 1.008-1.83.57.157-.05 1.688-.464 3.042-.465 1.52-.709 3.123-1.291 2.94-.583-.185.366-2.148.332-2.492-.548.506-1.557 1.785-2.848 1.152l.67 6.461s1.783 1.408 7.15 1.408c5.368 0 7.216-1.386 7.216-1.386l.833-7.484c-.681.663-2.837 1.841-2.975.514Z" fill="#D34A47"></path></g><defs><clipPath id="build-tools_svg__a"><path fill="#fff" d="M0 0h42v42H0z"></path></clipPath></defs></svg>