<svg width="42" height="42" fill="none" xmlns="http://www.w3.org/2000/svg"><g clip-path="url(#javascript_svg__a)"><path d="M42 0H0v41.767h42V0Z" fill="#F7DF1E"></path><path d="M28.213 32.63c.846 1.374 1.947 2.384 3.894 2.384 1.635 0 2.68-.813 2.68-1.936 0-1.346-1.074-1.822-2.874-2.605l-.986-.421c-2.848-1.207-4.74-2.718-4.74-5.914 0-2.944 2.255-5.184 5.78-5.184 2.509 0 4.313.868 5.613 3.142l-3.073 1.962c-.677-1.206-1.407-1.681-2.54-1.681-1.156 0-1.89.729-1.89 1.681 0 1.178.734 1.654 2.428 2.384l.986.42c3.354 1.43 5.247 2.888 5.247 6.166 0 3.533-2.791 5.47-6.54 5.47-3.665 0-6.033-1.738-7.192-4.014l3.207-1.854Zm-13.942.34c.62 1.095 1.184 2.02 2.54 2.02 1.297 0 2.115-.505 2.115-2.467V19.178h3.947v13.398c0 4.064-2.396 5.914-5.894 5.914-3.16 0-4.99-1.626-5.92-3.585l3.212-1.934Z" fill="#000"></path></g><defs><clipPath id="javascript_svg__a"><path fill="#fff" d="M0 0h42v42H0z"></path></clipPath></defs></svg>