<svg width="42" height="42" fill="none" xmlns="http://www.w3.org/2000/svg"><path d="M3.567 8h31.259c1.027 0 1.867.916 1.867 2.037V31.04H1.7V10.037C1.7 8.917 2.54 8 3.567 8Z" fill="#000"></path><path d="M2.968 29.656h32.457v-19.62c0-.356-.272-.653-.599-.653H3.567c-.327 0-.599.297-.599.653v19.62Z" fill="#fff"></path><path d="M3.64 13.182a1 1 0 0 1 1-1h29.114a1 1 0 0 1 1 1v5.856a1 1 0 0 1-1 1H4.639a1 1 0 0 1-1-1v-5.856Z" fill="#ECF0F1"></path><path d="M0 31.04h38.393v1.176c0 .646-.486 1.176-1.079 1.176H1.078c-.593 0-1.078-.53-1.078-1.176V31.04Z" fill="#B6B6B8"></path><path d="M15 31h7.664l-.821.595H15.82L15 31Z" fill="#919191"></path><path d="M27.338 15.396H38.82c.364 0 .66.321.66.718v16.559c0 .397-.296.719-.66.719H27.338c-.364 0-.659-.322-.659-.72V16.116c0-.398.295-.72.66-.72Z" fill="#000"></path><path d="M27.48 16.669h11.198c.042 0 .076.037.076.083v14.871c0 .046-.034.084-.076.084H27.48c-.043 0-.077-.038-.077-.084v-14.87c0-.047.034-.084.077-.084Z" fill="#fff"></path><path d="M33.08 32.91a.43.43 0 1 0 0-.86.43.43 0 0 0 0 .86Z" fill="#B6B6B8"></path><path d="M28.002 19.032a.5.5 0 0 1 .5-.5h9.155a.5.5 0 0 1 .5.5v5.529a.5.5 0 0 1-.5.5h-9.155a.5.5 0 0 1-.5-.5v-5.53Z" fill="#ECF0F1"></path><path d="M36.346 21.837h5.32c.184 0 .334.163.334.365v10.825c0 .202-.15.365-.335.365h-5.319c-.185 0-.334-.163-.334-.365V22.202c0-.202.15-.365.334-.365Z" fill="#000"></path><path d="M36.595 22.919h4.821c.019 0 .033.016.033.035v9.32c0 .02-.014.036-.033.036h-4.82c-.019 0-.034-.016-.034-.036v-9.32c0-.02.015-.035.033-.035Z" fill="#fff"></path><path d="M39.006 33.083a.304.304 0 0 0 .303-.305.304.304 0 0 0-.303-.305.304.304 0 0 0-.302.305c0 .168.135.305.302.305ZM38.197 22.433h1.618c.04 0 .074.036.074.08 0 .045-.033.081-.074.081h-1.618c-.041 0-.074-.036-.074-.08 0-.045.033-.081.074-.081Z" fill="#B6B6B8"></path><path d="M35.425 11.57H2.968v-1.534c0-.356.272-.653.599-.653h31.259c.327 0 .6.297.6.653v1.534Z" fill="#714EFF"></path><path d="M16.82 10.01h16.626c.122 0 .222.108.222.242v.45c0 .134-.1.242-.222.242H16.819c-.122 0-.222-.109-.222-.242v-.45c0-.134.1-.243.222-.243Z" fill="#fff"></path><path d="M4.349 9.993c.277 0 .503.245.503.548 0 .303-.226.549-.503.549-.278 0-.504-.246-.504-.549 0-.303.225-.548.504-.548ZM6.334 9.993c.278 0 .503.245.503.548 0 .303-.225.549-.503.549-.277 0-.503-.246-.503-.549 0-.303.226-.548.503-.548ZM8.32 9.993c.278 0 .503.245.503.548 0 .303-.225.549-.503.549s-.503-.246-.503-.549c0-.303.225-.548.503-.548Z" fill="#ECF0F1"></path><path d="M7.093 21.934a1.45 1.45 0 1 1 .001 2.9 1.45 1.45 0 0 1-.001-2.9ZM14.59 21.934a1.45 1.45 0 1 1 .002 2.9 1.45 1.45 0 0 1-.001-2.9Z" fill="#714EFF"></path><path d="M5.01 25.778h4.165v.247H5.01v-.247Zm0 1.549h2.798v.246H5.01v-.246Zm0-.774h4.165v.246H5.01v-.246ZM12.509 25.778h4.165v.247h-4.165v-.247Zm0 1.549h2.798v.246h-2.798v-.246Zm0-.774h4.165v.246h-4.165v-.246Z" fill="#DCE3DB"></path><path d="M22.55 21.934a1.45 1.45 0 1 1 .001 2.9 1.45 1.45 0 0 1 0-2.9Z" fill="#714EFF"></path><path d="M20.468 25.778h4.165v.247h-4.165v-.247Zm0 1.549h2.798v.246h-2.798v-.246Zm0-.774h4.165v.246h-4.165v-.246Z" fill="#DCE3DB"></path><path d="M30.024 26.001a.9.9 0 1 1 0 1.801.9.9 0 0 1 0-1.801Z" fill="#714EFF"></path><path d="M28.731 28.388h2.586v.2H28.73v-.2Zm0 1.253h1.737v.199H28.73v-.2Zm0-.627h2.586v.2H28.73v-.2Z" fill="#DCE3DB"></path><path d="M33.54 26.001a.9.9 0 1 1 0 1.801.9.9 0 0 1 0-1.801Z" fill="#714EFF"></path><path d="M32.248 28.388h2.585v.2h-2.585v-.2Zm0 1.253h1.736v.199h-1.736v-.2Zm0-.627h2.585v.2h-2.585v-.2Z" fill="#DCE3DB"></path><path d="M38.754 18.1h-11.35v-1.347c0-.046.034-.084.076-.084h11.198c.042 0 .076.038.076.084V18.1Z" fill="#714EFF"></path><path d="M28.245 17.076c.163 0 .296.144.296.322 0 .178-.133.322-.296.322-.163 0-.295-.144-.295-.322 0-.178.132-.322.295-.322ZM29.076 17.076c.163 0 .295.144.295.322 0 .178-.132.322-.295.322-.163 0-.295-.144-.295-.322 0-.178.132-.322.295-.322ZM29.907 17.076c.164 0 .296.144.296.322 0 .178-.132.322-.296.322-.163 0-.295-.144-.295-.322 0-.178.133-.322.296-.322Z" fill="#ECF0F1"></path><path d="M31.564 17.148h6.75c.05 0 .09.058.09.13v.24c0 .072-.04.13-.09.13h-6.75c-.05 0-.09-.058-.09-.13v-.24c0-.072.04-.13.09-.13Z" fill="#fff"></path><path d="M41.45 23.543h-4.888v-.589c0-.02.015-.035.033-.035h4.821c.019 0 .033.015.033.035v.59Z" fill="#714EFF"></path><path d="M36.908 23.024c.093 0 .168.082.168.184s-.075.184-.168.184c-.094 0-.17-.082-.17-.184s.076-.184.17-.184Z" fill="#fff"></path><path d="M37.383 23.024c.093 0 .168.082.168.184s-.075.184-.168.184c-.094 0-.17-.082-.17-.184s.076-.184.17-.184ZM37.858 23.024c.093 0 .169.082.169.184s-.076.184-.17.184c-.092 0-.168-.082-.168-.184s.076-.184.169-.184Z" fill="#ECF0F1"></path><path d="M38.544 23.048h2.717c.037 0 .066.032.066.072v.192c0 .04-.03.072-.066.072h-2.717c-.036 0-.066-.032-.066-.072v-.192c0-.04.03-.072.066-.072Z" fill="#fff"></path><path d="M36.8 23.995a.25.25 0 0 1 .25-.25h3.912a.25.25 0 0 1 .25.25v2.337a.25.25 0 0 1-.25.25H37.05a.25.25 0 0 1-.25-.25v-2.337Z" fill="#ECF0F1"></path><path d="M39.135 27.164a.82.82 0 1 1 0 1.639.82.82 0 0 1 0-1.639Z" fill="#714EFF"></path><path d="M37.714 29.602h2.843v.219h-2.843v-.22Zm0 1.378h1.91v.219h-1.91v-.22Zm0-.69h2.843v.22h-2.843v-.22Z" fill="#DCE3DB"></path><path d="M31.644 15.907h2.87c.042 0 .075.036.075.08v.001c0 .045-.033.08-.074.08h-2.871c-.041 0-.074-.035-.074-.08s.033-.08.074-.08Z" fill="#B6B6B8"></path></svg>