<svg width="42" height="42" fill="none" xmlns="http://www.w3.org/2000/svg"><path fill-rule="evenodd" clip-rule="evenodd" d="M0 34c0-.552.547-1 1.22-1h32.56c.673 0 1.22.448 1.22 1s-.547 1-1.22 1H1.22C.548 35 0 34.552 0 34Z" fill="#4E80FF"></path><path d="M3.513 8.347C2 9.695 2 11.863 2 16.2v7.667c0 2.89 0 4.337 1.009 5.235C4.018 30 5.64 30 8.889 30H26.11c3.248 0 4.871 0 5.88-.898C33 28.204 33 26.758 33 23.867V16.2c0-4.337 0-6.505-1.513-7.853C29.974 7 27.537 7 22.667 7H12.333c-4.87 0-7.306 0-8.82 1.347Z" fill="#BDD0FF"></path><path d="M13.1 26c-.607 0-1.1.448-1.1 1s.492 1 1.1 1h8.8c.608 0 1.1-.448 1.1-1s-.492-1-1.1-1h-8.8ZM7 9a2 2 0 0 0-2 2v12a2 2 0 0 0 2 2h20a2 2 0 0 0 2-2V11a2 2 0 0 0-2-2H7Zm11.391 4.4c.276 0 .561-.152.757-.346.145-.144.336-.26.553-.332.15-.049.276.121.276.278 0 .6.624 1.075 1.404 1.075.427 0 .903.152 1.291.328.207.094.448.147.712.147.099 0 .18.084.154.18-.133.49-.703.87-1.377.87-.342 0-.713.114-1.018.27-.223.113-.492.18-.776.18-.263 0-.504-.053-.71-.147-.39-.176-.865-.328-1.292-.328-.78 0-1.404-.475-1.404-1.075s.65-1.1 1.43-1.1ZM7.262 12.375c0-1.15.962-2.075 2.158-2.075 1.197 0 2.159.925 2.159 2.075 0 1.15-.963 2.075-2.159 2.075-1.196-.025-2.158-.95-2.158-2.075Zm18.42 11.009a.3.3 0 0 1-.3.316H8.486a.263.263 0 0 1-.263-.262v-.147c0-.064.052-.116.116-.116a.11.11 0 0 0 .028-.004c.875-.23 1.315-1.05 1.806-1.921.469-.825.937-1.675 1.82-2.05 1.197-.5 2.029.275 2.653.875.182.175.338.325.494.45.338.275.65.375.884.325.468-.1.884-.8 1.248-1.475.494-.875 1.014-1.8 1.924-1.95.598-.1 1.222.125 1.924.725s1.327 1.45 1.899 2.3c.739 1.066 1.501 2.154 2.486 2.67.1.052.17.151.175.264Zm-.01-9.784c-.343 0-.713.113-1.019.269a1.718 1.718 0 0 1-.775.181c-.264 0-.505-.053-.712-.147-.388-.176-.864-.328-1.29-.328-.78 0-1.405-.475-1.405-1.075s.624-1.075 1.404-1.075c.274 0 .558-.156.752-.35.258-.255.666-.425 1.12-.425.434 0 .825.154 1.084.39.223.204.539.385.84.385.78 0 1.405.475 1.405 1.075 0 .625-.624 1.1-1.404 1.1Z" fill="#4E80FF"></path><rect x="26.25" y="12.25" width="15.5" height="22.5" rx="3.75" fill="#D9D9D9" stroke="#4E80FF" stroke-width="0.5"></rect><path fill-rule="evenodd" clip-rule="evenodd" d="M31.787 12.5h4.426c.95 0 1.768 0 2.424.09.702.097 1.376.316 1.922.877.546.56.759 1.251.853 1.972.088.673.088 1.514.088 2.489v11.144c0 .976 0 1.816-.088 2.489-.094.72-.307 1.412-.853 1.972-.546.561-1.22.78-1.922.877-.656.09-1.474.09-2.424.09h-4.426c-.95 0-1.769 0-2.424-.09-.702-.097-1.375-.316-1.922-.877-.546-.56-.759-1.251-.853-1.972-.088-.673-.088-1.514-.088-2.489V17.928c0-.976 0-1.816.088-2.489.094-.72.307-1.412.853-1.972.547-.561 1.22-.78 1.922-.877.655-.09 1.474-.09 2.424-.09Zm.606 17.6c0-.608.48-1.1 1.071-1.1h1.072c.591 0 1.071.492 1.071 1.1 0 .607-.48 1.1-1.071 1.1h-1.072c-.591 0-1.071-.492-1.071-1.1Z" fill="#BDD0FF"></path><path d="M37.6 14h-7.2a2.4 2.4 0 0 0-2.4 2.4v7.2a2.4 2.4 0 0 0 2.4 2.4h7.2a2.4 2.4 0 0 0 2.4-2.4v-7.2a2.4 2.4 0 0 0-2.4-2.4Z" fill="#4E80FF"></path><path d="M30.06 22.34c-.189.303.087.66.511.66h3.858c.424 0 .7-.357.51-.66l-1.929-3.088c-.21-.336-.81-.336-1.02 0l-1.93 3.088Z" fill="#fff"></path><path d="M34.047 22.358a.444.444 0 0 0 .397.642h2.112c.33 0 .544-.347.397-.642l-1.056-2.113a.443.443 0 0 0-.794 0l-1.056 2.113Z" fill="#fff" fill-opacity="0.6"></path><path d="M36 18a1 1 0 1 0 0-2 1 1 0 0 0 0 2Z" fill="#fff"></path></svg>