<svg width="42" height="42" fill="none" xmlns="http://www.w3.org/2000/svg"><rect x="0.5" y="0.5" width="41" height="41" rx="5.5" fill="#fff"></rect><path d="M0 6a6 6 0 0 1 6-6h30a6 6 0 0 1 6 6v2H0V6Z" fill="#714EFF"></path><circle cx="7" cy="4" r="1" fill="#fff"></circle><circle cx="10" cy="4" r="1" fill="#fff"></circle><circle cx="13" cy="4" r="1" fill="#fff"></circle><g clip-path="url(#cross-browser-compatibility_svg__a)"><path d="M11 14h5.195a5.998 5.998 0 0 0-10.391 0L8.4 18.5l.003-.001a2.996 2.996 0 0 1 2.595-4.5Z" fill="url(#cross-browser-compatibility_svg__b)"></path><path d="M13.599 18.5 11 22.997A5.999 5.999 0 0 0 16.196 14H11l-.001.003a2.995 2.995 0 0 1 2.599 4.497Z" fill="url(#cross-browser-compatibility_svg__c)"></path><path d="m8.402 18.5-2.597-4.498A5.998 5.998 0 0 0 11 23l2.597-4.5-.001-.001a2.996 2.996 0 0 1-5.195.002Z" fill="url(#cross-browser-compatibility_svg__d)"></path><path d="M11 20a3 3 0 1 0 0-6 3 3 0 0 0 0 6Z" fill="#fff"></path><path d="M11 19.375a2.375 2.375 0 1 0 0-4.75 2.375 2.375 0 0 0 0 4.75Z" fill="#1A73E8"></path></g><g clip-path="url(#cross-browser-compatibility_svg__e)"><path d="M34.394 12.116c-.292.34-.428 1.106-.132 1.881.296.776.75.608 1.033 1.4.373 1.043.2 2.446.2 2.446s.449 1.3.761-.082c.692-2.593-1.862-5.006-1.862-5.645Z" fill="url(#cross-browser-compatibility_svg__f)"></path><path d="M30.83 22.887c2.99 0 5.413-2.436 5.413-5.44 0-3.003-2.422-5.44-5.41-5.44s-5.41 2.437-5.41 5.44c-.006 3.007 2.42 5.44 5.407 5.44Z" fill="url(#cross-browser-compatibility_svg__g)"></path><path d="M34.886 20.801c-.117.083-.24.157-.367.222.169-.248.325-.504.467-.768.116-.128.22-.252.307-.387a3.64 3.64 0 0 0 .14-.241c.303-.548.638-1.434.648-2.344v-.07a3.13 3.13 0 0 0-.07-.68l.007.053-.008-.04.012.072c.062.527.018 1.042-.204 1.42l-.01.017c.115-.576.153-1.212.025-1.85 0 0-.051-.309-.432-1.249-.218-.54-.607-.984-.95-1.307-.302-.373-.576-.623-.726-.781-.315-.332-.447-.58-.501-.742-.047-.024-.648-.608-.696-.63-.263.407-1.088 1.679-.695 2.868.178.539.628 1.098 1.098 1.412.021.024.28.305.404.941.127.657.06 1.169-.202 1.927-.308.665-1.098 1.322-1.838 1.389-1.581.144-2.16-.794-2.16-.794.565.226 1.19.179 1.57-.056.383-.237.614-.412.802-.343.185.069.333-.131.2-.339a.957.957 0 0 0-.968-.421c-.383.062-.734.365-1.236.072a.873.873 0 0 1-.095-.062c-.033-.022.108.033.075.008a2.471 2.471 0 0 1-.315-.21c-.008-.007.076.026.068.02-.47-.387-.41-.648-.396-.812a.47.47 0 0 1 .24-.368c.07.038.113.067.113.067l-.046-.092.017-.004c.057.027.182.098.249.142.086.06.114.115.114.115s.022-.012.005-.066a.34.34 0 0 0-.117-.16h.005c.05.03.1.063.144.1.025-.087.068-.178.058-.342-.005-.115-.003-.145-.023-.19-.018-.037.01-.052.041-.013a.413.413 0 0 0-.027-.09v-.003c.04-.137.833-.493.89-.535a.825.825 0 0 0 .234-.254.651.651 0 0 0 .085-.318c.004-.108-.046-.18-.848-.264-.22-.021-.348-.18-.42-.327l-.041-.089a.642.642 0 0 1-.031-.102c.13-.377.35-.695.675-.936.017-.016-.07.004-.053-.012.02-.018.155-.072.18-.085.031-.014-.132-.084-.277-.067-.147.017-.179.035-.257.068.032-.033.136-.075.112-.075-.159.024-.356.117-.525.22 0-.017.004-.035.01-.052-.078.033-.271.168-.327.282a.634.634 0 0 0 .003-.066c-.06.05-.113.107-.16.169l-.003.002c-.456-.183-.857-.195-1.196-.113-.075-.074-.11-.02-.28-.39-.011-.023.01.021 0 0-.027-.073.017.095 0 0-.284.223-.657.477-.837.656-.002.008.21-.06 0 0-.073.021-.068.065-.079.458-.003.03 0 .063-.003.09a2.56 2.56 0 0 0-.278.417c-.185.32-.39.817-.587 1.605.087-.214.192-.42.315-.615-.165.418-.324 1.074-.355 2.084.04-.208.09-.415.152-.617a5.77 5.77 0 0 0 .424 2.452c.114.278.302.7.622 1.163a5.5 5.5 0 0 0 3.998 1.719 5.506 5.506 0 0 0 4.13-1.859Z" fill="url(#cross-browser-compatibility_svg__h)"></path><path d="M33.672 21.57c1.986-.23 2.865-2.277 1.736-2.317-1.02-.032-2.677 2.426-1.736 2.317Z" fill="url(#cross-browser-compatibility_svg__i)"></path><path d="M35.551 18.835c1.367-.795 1.01-2.513 1.01-2.513s-.527.612-.885 1.589c-.354.967-.946 1.404-.125.924Z" fill="url(#cross-browser-compatibility_svg__j)"></path><path d="M31.213 22.587c1.905.608 3.542-.893 2.533-1.395-.918-.451-3.437 1.107-2.533 1.395Z" fill="url(#cross-browser-compatibility_svg__k)"></path><path d="M35.693 19.565c.046-.066.109-.276.165-.369.336-.543.338-.976.338-.986.204-1.015.185-1.429.06-2.195-.1-.617-.54-1.502-.921-1.927-.393-.439-.116-.296-.497-.616-.333-.37-.656-.736-.832-.883-1.272-1.063-1.243-1.29-1.219-1.327l-.018.02-.026-.11s-.695.695-.841 1.853c-.096.756.188 1.545.597 2.05.214.26.455.497.72.706.31.444.48.993.48 1.584a2.678 2.678 0 0 1-3.277 2.61c-.699-.133-1.102-.485-1.303-.724a1.315 1.315 0 0 1-.164-.236c.626.224 1.317.177 1.738-.056.423-.235.68-.409.888-.34.205.068.368-.13.222-.336-.144-.206-.518-.5-1.072-.418-.424.062-.813.363-1.369.07a1.06 1.06 0 0 1-.104-.06c-.037-.022.119.032.083.008a2.743 2.743 0 0 1-.35-.208c-.008-.007.084.026.076.02-.52-.384-.455-.643-.439-.806a.466.466 0 0 1 .267-.364c.077.038.125.067.125.067l-.051-.092.018-.004c.063.027.202.098.275.14.096.061.126.115.126.115s.025-.012.007-.065a.34.34 0 0 0-.13-.16l.005.002c.057.028.11.062.16.1.027-.087.075-.178.065-.34-.007-.114-.004-.144-.026-.188-.02-.038.01-.053.046-.014a.365.365 0 0 0-.03-.09v-.002c.044-.136.922-.49.986-.531a.858.858 0 0 0 .258-.251.595.595 0 0 0 .094-.316c.003-.067-.017-.12-.25-.17-.14-.03-.355-.06-.688-.092-.243-.02-.385-.179-.466-.324a.665.665 0 0 1-.08-.19c.147-.381.408-.706.749-.928.02-.016-.078.004-.059-.012.023-.019.172-.072.2-.085.034-.014-.147-.083-.307-.066-.163.016-.197.034-.284.067.036-.032.15-.074.124-.074a1.83 1.83 0 0 0-.58.22c-.001-.019.003-.037.01-.053-.086.033-.3.167-.362.28a.43.43 0 0 0 .004-.065 1.108 1.108 0 0 0-.178.166l-.004.003c-.504-.182-.948-.194-1.324-.112-.082-.074-.214-.186-.4-.553-.014-.022-.02.045-.03.023a1.691 1.691 0 0 1-.11-.634s-.15.068-.274.354c-.023.052-.038.08-.052.108-.007.009.015-.094.012-.088-.022.037-.078.088-.102.154-.017.049-.041.077-.056.137l-.004.006c0-.018.005-.074.001-.063a2.92 2.92 0 0 0-.15.365 3.39 3.39 0 0 0-.157.91c-.003.028 0 .062-.003.088-.158.181-.267.334-.307.414-.206.315-.432.81-.65 1.59.097-.213.213-.418.347-.61-.182.414-.358 1.065-.393 2.068.044-.208.1-.412.17-.613a5.188 5.188 0 0 0 .468 2.432c.25.55.828 1.666 2.24 2.538 1.41.87.48.357 1.304.625.061.021.123.044.186.064a2.213 2.213 0 0 1-.057-.024c.55.164 1.119.248 1.693.248 2.136.002 2.766-.856 2.766-.856l-.006.005c.03-.029.059-.059.087-.089-.337.318-1.106.34-1.394.317.49-.144.813-.266 1.44-.507a3.27 3.27 0 0 0 .226-.093l.025-.011.046-.022c.306-.144.593-.324.857-.536.63-.504.767-.995.84-1.318-.01.03-.042.103-.064.15-.162.347-.522.561-.913.744.186-.244.358-.499.517-.762.127-.126.167-.324.262-.457Z" fill="url(#cross-browser-compatibility_svg__l)"></path><path d="M34.926 20.769c.257-.284.488-.608.662-.976.45-.946 1.146-2.52.598-4.162-.433-1.299-1.028-2.009-1.782-2.703-1.226-1.126-1.569-1.629-1.569-1.928 0 0-1.416 1.579-.802 3.224.614 1.646 1.872 1.586 2.703 3.304.98 2.021-.792 4.227-2.256 4.845.09-.02 3.255-.737 3.422-2.548-.004.034-.075.534-.976.944Z" fill="url(#cross-browser-compatibility_svg__m)"></path><path d="M30.824 14.895c.005-.107-.05-.179-.935-.262-.364-.033-.503-.37-.545-.511-.13.336-.183.688-.154 1.115.02.28.207.58.297.756 0 0 .02-.026.029-.035.17-.176.877-.444.944-.483.073-.046.352-.25.364-.58Z" fill="url(#cross-browser-compatibility_svg__n)"></path><path d="M26.93 12.908c-.012-.022-.02.046-.029.024a1.625 1.625 0 0 1-.106-.635s-.15.069-.275.355c-.023.051-.037.08-.052.108-.007.008.015-.094.012-.088-.022.036-.078.087-.102.15-.02.053-.04.08-.056.144-.005.018.004-.077 0-.065-.289.559-.344 1.404-.314 1.368.616-.657 1.321-.813 1.321-.813-.074-.056-.238-.215-.398-.548Z" fill="url(#cross-browser-compatibility_svg__o)"></path><path d="M29.266 19.782c-.85-.362-1.816-.875-1.78-2.038.05-1.532 1.428-1.229 1.428-1.229a.499.499 0 0 0-.24.218.66.66 0 0 0 .14.742c.453.49-.929 1.163 1.203 2.434.055.03-.499-.018-.75-.127Z" fill="url(#cross-browser-compatibility_svg__p)"></path><path d="M28.964 19.019c.603.21 1.306.173 1.726-.06.282-.156.643-.407.865-.345a1.5 1.5 0 0 0-.611-.124 1.69 1.69 0 0 0-.192.01c-.109.01-.229.079-.338.068-.006 0 .106-.046.097-.044-.058.012-.121.015-.188.023-.042.005-.079.01-.12.012-1.257.107-2.318-.68-2.318-.68-.09.303.404.905 1.08 1.14Z" fill="url(#cross-browser-compatibility_svg__q)"></path><path d="M34.923 20.777c1.27-1.247 1.913-2.763 1.641-4.464 0 0 .11.872-.303 1.764.198-.87.221-1.953-.304-3.073-.701-1.496-1.854-2.283-2.295-2.611-.666-.498-.943-1.004-.948-1.109-.2.408-.802 1.807-.065 3.012.69 1.13 1.779 1.465 2.54 2.5 1.404 1.908-.266 3.98-.266 3.98Z" fill="url(#cross-browser-compatibility_svg__r)"></path><path d="M34.742 17.532c-.445-.917-.998-1.317-1.523-1.751.061.085.076.115.11.17a3.237 3.237 0 0 1 .648 3.197c-.93 2.834-4.648 1.5-5.038 1.125.158 1.64 2.903 2.425 4.69 1.361 1.017-.963 1.84-2.6 1.113-4.102Z" fill="url(#cross-browser-compatibility_svg__s)"></path></g><g clip-path="url(#cross-browser-compatibility_svg__t)"><path d="M15.83 35.931a4.39 4.39 0 0 1-.493.22 4.772 4.772 0 0 1-1.683.303c-2.218 0-4.15-1.525-4.15-3.483a1.475 1.475 0 0 1 .77-1.28c-2.006.084-2.522 2.175-2.522 3.4 0 3.462 3.192 3.813 3.88 3.813.37 0 .93-.107 1.265-.213l.062-.02a6.016 6.016 0 0 0 3.121-2.476.187.187 0 0 0-.25-.264Z" fill="url(#cross-browser-compatibility_svg__u)"></path><path opacity="0.35" d="M15.83 35.931a4.39 4.39 0 0 1-.493.22 4.772 4.772 0 0 1-1.683.303c-2.218 0-4.15-1.525-4.15-3.483a1.475 1.475 0 0 1 .77-1.28c-2.006.084-2.522 2.175-2.522 3.4 0 3.462 3.192 3.813 3.88 3.813.37 0 .93-.107 1.265-.213l.062-.02a6.016 6.016 0 0 0 3.121-2.476.187.187 0 0 0-.25-.264Z" fill="url(#cross-browser-compatibility_svg__v)"></path><path d="M9.956 38.316c-.418-.26-.78-.6-1.066-1a3.783 3.783 0 0 1 1.384-5.625c.146-.069.396-.194.728-.188a1.517 1.517 0 0 1 1.205.61c.189.252.293.559.298.874 0-.01 1.146-3.73-3.75-3.73-2.058 0-3.75 1.952-3.75 3.665a6 6 0 0 0 7.897 5.77 3.54 3.54 0 0 1-2.942-.374l-.004-.002Z" fill="url(#cross-browser-compatibility_svg__w)"></path><path opacity="0.41" d="M9.956 38.316c-.418-.26-.78-.6-1.066-1a3.783 3.783 0 0 1 1.384-5.625c.146-.069.396-.194.728-.188a1.517 1.517 0 0 1 1.205.61c.189.252.293.559.298.874 0-.01 1.146-3.73-3.75-3.73-2.058 0-3.75 1.952-3.75 3.665a6 6 0 0 0 7.897 5.77 3.54 3.54 0 0 1-2.942-.374l-.004-.002Z" fill="url(#cross-browser-compatibility_svg__x)"></path><path d="M12.14 33.977c-.038.05-.155.118-.155.266 0 .122.08.24.222.339.674.468 1.944.406 1.948.406.499 0 .989-.136 1.418-.391A2.876 2.876 0 0 0 17 32.118c.012-1.05-.375-1.748-.532-2.058C15.475 28.117 13.331 27 11 27a6 6 0 0 0-6 5.915c.022-1.712 1.725-3.096 3.75-3.096.164 0 1.1.016 1.968.472.766.402 1.168.888 1.446 1.37.29.5.342 1.131.342 1.383s-.129.625-.366.933Z" fill="url(#cross-browser-compatibility_svg__y)"></path><path d="M12.14 33.977c-.038.05-.155.118-.155.266 0 .122.08.24.222.339.674.468 1.944.406 1.948.406.499 0 .989-.136 1.418-.391A2.876 2.876 0 0 0 17 32.118c.012-1.05-.375-1.748-.532-2.058C15.475 28.117 13.331 27 11 27a6 6 0 0 0-6 5.915c.022-1.712 1.725-3.096 3.75-3.096.164 0 1.1.016 1.968.472.766.402 1.168.888 1.446 1.37.29.5.342 1.131.342 1.383s-.129.625-.366.933Z" fill="url(#cross-browser-compatibility_svg__z)"></path></g><g clip-path="url(#cross-browser-compatibility_svg__A)"><path d="M31 38.719a5.813 5.813 0 1 0 0-11.625 5.813 5.813 0 0 0 0 11.625Z" fill="url(#cross-browser-compatibility_svg__B)"></path><path d="M31 38.283a5.377 5.377 0 1 0 0-10.753 5.377 5.377 0 0 0 0 10.753Z" fill="url(#cross-browser-compatibility_svg__C)"></path><path d="M31.009 28.838c-.036 0-.068-.027-.068-.064v-.949c0-.036.032-.063.068-.063.036 0 .068.027.068.063v.95c-.004.036-.032.063-.068.063Z" fill="#F3F3F3"></path><path d="M31.01 28.842c-.042 0-.074-.032-.074-.068v-.949c0-.036.032-.068.073-.068.041 0 .073.032.073.068v.949c0 .036-.037.068-.073.068Zm0-1.076c-.033 0-.064.027-.064.059v.949c0 .032.027.06.063.06.032 0 .064-.028.064-.06v-.949c-.005-.032-.032-.06-.064-.06Z" fill="#fff"></path><path d="M31.463 28.33c-.036-.005-.063-.032-.063-.069l.031-.422a.066.066 0 0 1 .073-.06c.036.005.064.033.064.069l-.032.422a.066.066 0 0 1-.073.06Z" fill="#F3F3F3"></path><path d="M31.463 28.334a.074.074 0 0 1-.068-.073l.032-.422c.004-.036.036-.068.077-.064.04.005.068.037.068.073l-.032.422c-.004.041-.036.068-.077.064Zm.041-.55c-.032 0-.064.023-.064.055l-.031.422c0 .032.022.06.059.064.032 0 .063-.023.063-.055l.032-.422c0-.032-.027-.059-.059-.064Z" fill="#fff"></path><path d="M31.804 28.92a.07.07 0 0 1-.055-.078l.187-.93c.009-.037.04-.06.077-.05.036.009.059.04.054.077l-.186.93c-.005.032-.04.055-.077.05Z" fill="#F3F3F3"></path><path d="M31.804 28.924a.074.074 0 0 1-.06-.082l.187-.93a.073.073 0 0 1 .086-.055c.041.009.064.045.06.082l-.187.93c-.01.037-.045.06-.086.055Zm.213-1.058a.065.065 0 0 0-.073.045l-.186.931a.064.064 0 0 0 .05.073.065.065 0 0 0 .073-.046l.186-.93c.005-.037-.018-.064-.05-.073Z" fill="#fff"></path><path d="M32.349 28.51a.068.068 0 0 1-.05-.08l.113-.41c.01-.036.046-.054.082-.045.037.01.06.045.05.082l-.113.408c-.01.037-.046.055-.082.046Z" fill="#F3F3F3"></path><path d="M32.349 28.515c-.037-.009-.064-.05-.05-.086l.113-.409c.01-.036.05-.059.087-.05.036.01.063.05.05.087l-.114.408c-.01.037-.045.06-.086.05Zm.15-.531c-.032-.01-.069.009-.078.04l-.113.41c-.01.031.009.063.045.072.032.01.068-.009.077-.04l.114-.41a.065.065 0 0 0-.045-.072Z" fill="#fff"></path><path d="M32.571 29.151a.065.065 0 0 1-.036-.086l.363-.877c.014-.031.055-.05.086-.031.037.013.05.054.037.086l-.363.876c-.014.032-.055.05-.087.032Z" fill="#F3F3F3"></path><path d="M32.571 29.156a.07.07 0 0 1-.04-.091l.363-.877c.013-.036.054-.05.095-.036a.07.07 0 0 1 .04.091l-.362.876c-.019.037-.06.055-.096.037Zm.413-.995a.062.062 0 0 0-.081.032l-.364.876c-.013.032.005.064.037.078.032.013.068 0 .082-.032l.363-.877a.065.065 0 0 0-.037-.077Z" fill="#fff"></path><path d="M33.184 28.86c-.031-.018-.045-.054-.031-.086l.19-.377a.066.066 0 0 1 .091-.027c.032.018.045.054.032.086l-.19.377a.066.066 0 0 1-.092.027Z" fill="#F3F3F3"></path><path d="M33.184 28.865a.07.07 0 0 1-.031-.095l.19-.377a.07.07 0 0 1 .096-.032.07.07 0 0 1 .031.095l-.19.377a.07.07 0 0 1-.096.032Zm.25-.495c-.032-.014-.068-.004-.082.027l-.19.377c-.014.027 0 .064.027.082.032.014.068.004.082-.027l.19-.377c.014-.027 0-.064-.027-.082Z" fill="#fff"></path><path d="M33.275 29.533c-.032-.023-.04-.064-.018-.091l.527-.786c.018-.032.059-.036.09-.018.032.023.041.064.019.09l-.527.787a.061.061 0 0 1-.09.018Z" fill="#F3F3F3"></path><path d="M33.275 29.537a.079.079 0 0 1-.023-.1l.527-.786a.072.072 0 0 1 .1-.018c.032.023.041.068.023.1l-.527.786a.073.073 0 0 1-.1.018Zm.6-.895c-.028-.018-.069-.013-.087.014l-.526.786a.06.06 0 0 0 .018.081c.027.018.068.014.086-.013l.527-.781a.065.065 0 0 0-.019-.087Z" fill="#fff"></path><path d="M33.938 29.364c-.027-.022-.036-.063-.014-.09l.264-.332a.065.065 0 0 1 .09-.009c.028.023.037.064.014.09l-.263.332a.065.065 0 0 1-.09.01Z" fill="#F3F3F3"></path><path d="M33.934 29.369c-.032-.023-.037-.068-.014-.1l.263-.331c.023-.032.068-.037.1-.01.032.023.037.069.014.1l-.264.332c-.022.032-.068.036-.1.009Zm.34-.431c-.027-.023-.063-.018-.086.009l-.264.331a.064.064 0 0 0 .014.087c.027.022.064.018.086-.01l.264-.331c.018-.027.013-.068-.014-.086Z" fill="#fff"></path><path d="M33.893 30.046c-.028-.028-.028-.068 0-.091l.672-.668a.064.064 0 0 1 .09 0c.023.023.028.068 0 .091l-.667.668a.066.066 0 0 1-.095 0Z" fill="#F3F3F3"></path><path d="M33.888 30.05a.071.071 0 0 1 0-.1l.672-.667a.071.071 0 0 1 .1 0 .071.071 0 0 1 0 .1l-.672.667a.071.071 0 0 1-.1 0Zm.768-.763a.063.063 0 0 0-.087 0l-.672.668a.063.063 0 0 0 0 .086.063.063 0 0 0 .087 0l.672-.668c.022-.022.022-.059 0-.086Z" fill="#fff"></path><path d="M34.574 30.01c-.023-.028-.023-.069.004-.092l.323-.272a.065.065 0 0 1 .09.009c.023.027.023.068-.004.09l-.322.273a.065.065 0 0 1-.091-.009Z" fill="#F3F3F3"></path><path d="M34.57 30.014c-.028-.032-.023-.077.004-.1l.322-.273c.027-.027.073-.022.1.01.027.031.023.077-.004.1l-.323.272c-.027.027-.072.023-.1-.01Zm.417-.359c-.023-.027-.059-.027-.086-.009l-.323.272a.063.063 0 0 0-.004.087c.023.027.059.027.086.009l.323-.273c.027-.022.027-.059.004-.086Z" fill="#fff"></path><path d="M34.392 30.663a.061.061 0 0 1 .018-.09l.79-.527c.032-.019.073-.01.091.018a.062.062 0 0 1-.018.09l-.79.527c-.027.018-.068.01-.09-.018Z" fill="#F3F3F3"></path><path d="M34.388 30.663a.073.073 0 0 1 .018-.1l.79-.526a.07.07 0 0 1 .1.023.073.073 0 0 1-.018.1l-.79.526a.07.07 0 0 1-.1-.023Zm.899-.594a.06.06 0 0 0-.082-.019l-.79.527c-.027.018-.036.055-.014.086a.06.06 0 0 0 .082.019l.79-.527a.064.064 0 0 0 .014-.086Z" fill="#fff"></path><path d="M35.069 30.759a.066.066 0 0 1 .023-.091l.367-.21c.032-.017.073-.004.091.028a.066.066 0 0 1-.022.09l-.368.21c-.032.018-.073.004-.091-.027Z" fill="#F3F3F3"></path><path d="M35.064 30.763c-.018-.036-.009-.077.023-.095l.368-.21c.032-.017.077-.004.095.028.019.036.01.077-.022.095l-.368.21c-.032.017-.077.004-.096-.028Zm.482-.272c-.018-.032-.055-.041-.082-.023l-.368.209a.065.065 0 0 0-.022.082c.018.031.054.04.081.022l.368-.209c.027-.013.036-.05.023-.081Z" fill="#fff"></path><path d="M34.764 31.362c-.013-.036 0-.072.037-.086l.876-.363c.032-.014.073.004.087.036.013.036 0 .073-.037.086l-.876.364a.065.065 0 0 1-.087-.037Z" fill="#F3F3F3"></path><path d="M34.76 31.367a.075.075 0 0 1 .036-.095l.877-.364a.07.07 0 0 1 .09.041.075.075 0 0 1-.036.096l-.876.363a.07.07 0 0 1-.09-.041Zm.995-.413a.065.065 0 0 0-.078-.037l-.876.364a.062.062 0 0 0-.032.081c.014.032.05.046.077.037l.877-.364a.062.062 0 0 0 .032-.081Z" fill="#fff"></path><path d="M35.405 31.59c-.014-.037.005-.073.04-.087l.4-.131c.032-.014.073.009.082.04.014.037-.004.073-.04.087l-.4.132c-.032.013-.069-.005-.082-.041Z" fill="#F3F3F3"></path><path d="M35.4 31.594a.07.07 0 0 1 .046-.09l.4-.132c.036-.014.077.009.09.045a.07.07 0 0 1-.045.09l-.4.133a.077.077 0 0 1-.09-.046Zm.527-.172c-.009-.032-.045-.05-.077-.041l-.4.131c-.031.01-.045.046-.036.078.01.031.045.05.077.04l.4-.131a.063.063 0 0 0 .036-.077Z" fill="#fff"></path><path d="M34.996 32.13c-.009-.037.014-.073.05-.078l.931-.181c.036-.01.068.018.077.054a.061.061 0 0 1-.05.078l-.93.181c-.037.005-.073-.018-.078-.054Z" fill="#F3F3F3"></path><path d="M34.987 32.13a.073.073 0 0 1 .055-.086l.93-.182c.037-.009.073.018.082.06a.073.073 0 0 1-.054.085l-.931.182c-.037.01-.073-.018-.082-.059Zm1.058-.204a.061.061 0 0 0-.068-.05l-.93.181c-.033.005-.055.041-.046.073a.061.061 0 0 0 .068.05l.93-.182c.032-.009.055-.04.046-.072Z" fill="#fff"></path><path d="M35.577 32.48c-.004-.037.018-.069.055-.073l.418-.05a.066.066 0 0 1 .072.059c.005.036-.018.068-.054.073l-.418.05c-.032.004-.068-.023-.073-.06Z" fill="#F3F3F3"></path><path d="M35.573 32.48c-.005-.041.023-.077.059-.082l.418-.05a.07.07 0 0 1 .077.064c.004.04-.023.077-.06.081l-.417.05a.07.07 0 0 1-.077-.063Zm.55-.064c-.005-.031-.037-.059-.069-.054l-.418.05a.06.06 0 0 0-.05.068c.005.032.037.059.069.054l.417-.05a.06.06 0 0 0 .05-.068Z" fill="#fff"></path><path d="M35.069 32.92c0-.036.027-.068.063-.068h.95c.036 0 .063.032.063.068 0 .036-.027.068-.064.068h-.949c-.036 0-.063-.032-.063-.068Z" fill="#F3F3F3"></path><path d="M35.065 32.92c0-.04.031-.072.068-.072h.949c.036 0 .068.031.068.072 0 .041-.032.073-.068.073h-.95c-.036 0-.067-.032-.067-.073Zm1.076.005c0-.032-.028-.064-.06-.064h-.948c-.032 0-.06.028-.06.064 0 .032.028.063.06.063h.949c.031-.004.059-.031.059-.063Z" fill="#fff"></path><path d="M35.573 33.379c.004-.036.032-.064.068-.064l.422.032a.066.066 0 0 1 .06.073c-.005.036-.033.063-.069.063l-.422-.031c-.032-.005-.06-.037-.06-.073Z" fill="#F3F3F3"></path><path d="M35.568 33.379a.074.074 0 0 1 .073-.069l.422.032c.037.005.068.037.064.078a.074.074 0 0 1-.073.068l-.422-.032c-.036-.005-.064-.041-.064-.077Zm.554.04a.057.057 0 0 0-.054-.063l-.422-.032a.064.064 0 0 0-.064.06.057.057 0 0 0 .054.063l.423.032c.032 0 .059-.028.063-.06Z" fill="#fff"></path><path d="M34.987 33.71a.07.07 0 0 1 .077-.054l.931.186c.037.01.06.04.05.077a.07.07 0 0 1-.077.055l-.93-.186c-.033-.005-.055-.041-.05-.078Z" fill="#F3F3F3"></path><path d="M34.983 33.71a.074.074 0 0 1 .081-.059l.931.187c.037.009.064.045.055.086a.074.074 0 0 1-.082.059l-.931-.186c-.036-.01-.059-.046-.054-.086Zm1.058.214a.065.065 0 0 0-.046-.073l-.93-.186a.064.064 0 0 0-.073.05.065.065 0 0 0 .045.073l.93.186c.037.004.065-.018.074-.05Z" fill="#fff"></path><path d="M35.396 34.255a.068.068 0 0 1 .082-.05l.408.114c.037.009.055.045.046.081a.068.068 0 0 1-.082.05l-.409-.113c-.036-.01-.054-.046-.045-.082Z" fill="#F3F3F3"></path><path d="M35.391 34.255c.01-.036.05-.063.086-.05l.41.114c.035.009.058.05.05.086-.01.036-.05.064-.087.05l-.409-.113c-.036-.01-.059-.046-.05-.087Zm.532.15c.008-.032-.01-.068-.041-.077l-.41-.114c-.03-.009-.063.01-.072.046-.009.032.01.068.041.077l.409.113a.065.065 0 0 0 .072-.045Z" fill="#fff"></path><path d="M34.755 34.473a.065.065 0 0 1 .087-.036l.876.363c.032.014.05.055.036.086a.065.065 0 0 1-.086.037l-.876-.364a.065.065 0 0 1-.037-.086Z" fill="#F3F3F3"></path><path d="M34.751 34.469a.07.07 0 0 1 .09-.041l.877.363c.037.014.05.055.037.096a.07.07 0 0 1-.091.04l-.877-.363c-.036-.018-.05-.059-.036-.095Zm.995.413a.062.062 0 0 0-.032-.082l-.877-.363c-.032-.014-.063.005-.077.036a.062.062 0 0 0 .032.082l.876.363c.032.01.068-.004.078-.036Z" fill="#fff"></path><path d="M35.05 35.086c.019-.031.055-.045.087-.031l.377.19c.032.014.045.055.027.091-.018.032-.054.046-.086.032l-.377-.19c-.032-.019-.046-.06-.027-.092Z" fill="#F3F3F3"></path><path d="M35.046 35.082a.07.07 0 0 1 .096-.032l.376.19a.07.07 0 0 1 .032.096.07.07 0 0 1-.095.032l-.377-.19c-.036-.014-.05-.06-.032-.096Zm.49.25c.014-.032.005-.069-.027-.082l-.377-.19c-.027-.015-.063 0-.081.026-.014.032-.005.068.027.082l.377.19c.032.014.068.005.081-.026Z" fill="#fff"></path><path d="M34.383 35.172c.023-.031.06-.04.091-.018l.79.527c.032.018.036.059.018.09-.022.033-.059.042-.09.019l-.79-.527c-.032-.023-.041-.063-.019-.09Z" fill="#F3F3F3"></path><path d="M34.379 35.168a.078.078 0 0 1 .1-.023l.79.527c.032.023.04.063.018.1a.079.079 0 0 1-.1.022l-.79-.526c-.036-.023-.041-.069-.018-.1Zm.894.6c.018-.028.014-.069-.013-.087l-.79-.527a.06.06 0 0 0-.082.018c-.018.028-.014.068.013.087l.79.526a.06.06 0 0 0 .082-.018Z" fill="#fff"></path><path d="M34.551 35.83c.023-.027.064-.036.091-.013l.331.259a.065.065 0 0 1 .01.09c-.023.028-.064.037-.091.014l-.332-.258a.065.065 0 0 1-.009-.091Z" fill="#F3F3F3"></path><path d="M34.547 35.826c.022-.032.068-.036.1-.014l.331.26c.032.022.036.067.014.1-.023.031-.068.036-.1.013l-.332-.259c-.032-.023-.036-.068-.013-.1Zm.436.34c.022-.026.018-.063-.01-.085l-.331-.26a.064.064 0 0 0-.086.014c-.023.027-.018.064.009.087l.331.258a.064.064 0 0 0 .087-.013Z" fill="#fff"></path><path d="M33.874 35.786c.028-.028.069-.028.091 0l.672.667a.064.064 0 0 1 0 .09c-.027.028-.068.028-.09 0l-.672-.667a.069.069 0 0 1 0-.09Z" fill="#F3F3F3"></path><path d="M33.874 35.781a.071.071 0 0 1 .1 0l.672.668a.071.071 0 0 1 0 .1.071.071 0 0 1-.1 0l-.672-.668a.064.064 0 0 1 0-.1Zm.763.758a.063.063 0 0 0 0-.086l-.672-.667a.063.063 0 0 0-.086 0 .063.063 0 0 0 0 .086l.672.667c.023.028.06.028.086 0Z" fill="#fff"></path><path d="M33.916 36.462c.027-.022.068-.022.09.005l.277.318a.065.065 0 0 1-.009.09c-.027.023-.068.023-.09-.004l-.278-.318c-.022-.023-.018-.063.01-.09Z" fill="#F3F3F3"></path><path d="M33.91 36.462a.071.071 0 0 1 .1.005l.278.318c.027.027.023.072-.01.1a.071.071 0 0 1-.1-.005l-.276-.318c-.023-.032-.023-.077.009-.1Zm.364.413c.027-.022.027-.059.01-.086l-.278-.318a.063.063 0 0 0-.086-.004c-.027.022-.027.059-.01.086l.278.318c.023.027.059.027.086.004Z" fill="#fff"></path><path d="M33.261 36.29a.061.061 0 0 1 .091.018l.527.785c.018.032.01.073-.018.091a.061.061 0 0 1-.09-.018l-.528-.786c-.018-.032-.009-.072.018-.09Z" fill="#F3F3F3"></path><path d="M33.261 36.285a.073.073 0 0 1 .1.018l.527.786a.07.07 0 0 1-.023.1.073.073 0 0 1-.1-.018l-.526-.786c-.023-.036-.014-.077.022-.1Zm.6.895a.06.06 0 0 0 .018-.082l-.527-.786c-.018-.027-.054-.031-.086-.013a.06.06 0 0 0-.018.081l.527.786c.018.023.059.032.086.014Z" fill="#fff"></path><path d="M33.166 36.961a.066.066 0 0 1 .091.023l.209.368c.018.032.004.073-.027.09a.066.066 0 0 1-.091-.022l-.21-.368c-.013-.032-.004-.072.028-.09Z" fill="#F3F3F3"></path><path d="M33.166 36.957c.037-.018.077-.01.096.023l.209.367c.018.032.009.078-.028.096-.036.018-.077.009-.095-.023l-.209-.368c-.018-.031-.01-.072.027-.095Zm.273.481c.027-.018.04-.054.022-.081l-.209-.368a.065.065 0 0 0-.081-.023c-.027.018-.041.055-.023.082l.209.368c.014.027.054.04.082.022Z" fill="#fff"></path><path d="M32.562 36.662c.037-.014.073 0 .086.032l.368.876c.014.032-.004.073-.036.087-.032.013-.073 0-.086-.032l-.368-.877c-.014-.031.004-.072.036-.086Z" fill="#F3F3F3"></path><path d="M32.562 36.657a.075.075 0 0 1 .096.037l.367.876a.07.07 0 0 1-.04.091.075.075 0 0 1-.096-.036l-.368-.877c-.013-.031.005-.072.041-.09Zm.413.995c.032-.014.046-.05.032-.077l-.368-.877a.062.062 0 0 0-.081-.031c-.032.013-.046.05-.032.077l.368.876c.018.032.05.046.081.032Z" fill="#fff"></path><path d="M32.34 37.307c.036-.014.072.004.086.04l.131.4c.014.032-.009.073-.04.082-.037.014-.073-.005-.087-.04l-.131-.4c-.014-.032.004-.069.04-.082Z" fill="#F3F3F3"></path><path d="M32.335 37.302a.07.07 0 0 1 .09.041l.133.4c.013.036-.01.077-.046.09a.07.07 0 0 1-.09-.04l-.132-.4a.077.077 0 0 1 .045-.09Zm.177.523c.032-.01.05-.046.041-.078l-.132-.4c-.009-.031-.045-.045-.077-.035-.032.009-.05.045-.04.077l.131.4c.01.031.045.05.077.036Z" fill="#fff"></path><path d="M31.804 36.894c.036-.01.073.013.077.05l.19.93c.01.037-.017.069-.054.078-.036.009-.072-.014-.077-.05l-.19-.931a.073.073 0 0 1 .054-.077Z" fill="#F3F3F3"></path><path d="M31.804 36.889c.04-.01.077.018.086.054l.19.931c.01.037-.017.078-.054.082a.073.073 0 0 1-.086-.054l-.19-.931c-.01-.037.013-.073.054-.082Zm.213 1.058c.032-.005.055-.036.05-.073l-.19-.93c-.005-.032-.041-.055-.073-.046-.032.005-.055.036-.05.073l.19.93c.01.032.041.05.073.046Z" fill="#fff"></path><path d="M31.459 37.484a.07.07 0 0 1 .077.054l.054.418a.066.066 0 0 1-.059.073.07.07 0 0 1-.077-.055l-.054-.417a.066.066 0 0 1 .059-.073Z" fill="#F3F3F3"></path><path d="M31.459 37.48c.04-.005.077.022.081.059l.055.417a.07.07 0 0 1-.064.077c-.04.005-.077-.022-.081-.059l-.055-.417a.07.07 0 0 1 .064-.078Zm.068.544c.031-.004.059-.036.054-.068l-.054-.418a.06.06 0 0 0-.068-.05c-.032.005-.06.037-.055.069l.055.417a.06.06 0 0 0 .068.05Z" fill="#fff"></path><path d="M30.991 36.975c.036 0 .068.027.068.064v.949c0 .036-.032.063-.068.063-.036 0-.068-.027-.068-.063v-.95c.004-.036.032-.063.068-.063Z" fill="#F3F3F3"></path><path d="M30.99 36.97c.042 0 .074.032.074.069v.949c0 .036-.032.068-.073.068-.041 0-.073-.032-.073-.068v-.95c0-.035.037-.067.073-.067Zm0 1.077c.033 0 .064-.027.064-.06v-.948c0-.032-.027-.06-.063-.06-.032 0-.064.028-.064.06v.949c.005.032.032.059.064.059Z" fill="#fff"></path><path d="M30.537 37.484c.036.004.063.032.063.068l-.031.422a.066.066 0 0 1-.073.06c-.036-.005-.064-.032-.064-.069l.032-.422a.066.066 0 0 1 .073-.06Z" fill="#F3F3F3"></path><path d="M30.537 37.48c.04.004.068.036.068.072l-.032.422c-.004.037-.036.069-.077.064a.074.074 0 0 1-.068-.073l.032-.422c.004-.04.036-.068.077-.063Zm-.04.549c.03 0 .063-.023.063-.055l.032-.422c0-.032-.023-.059-.06-.063-.031 0-.063.022-.063.054l-.032.422c0 .032.027.06.06.064Z" fill="#fff"></path><path d="M30.196 36.894c.037.009.06.04.055.077l-.186.93c-.01.037-.041.06-.078.05a.07.07 0 0 1-.054-.077l.186-.93c.005-.032.041-.055.077-.05Z" fill="#F3F3F3"></path><path d="M30.196 36.889c.041.009.064.045.06.081l-.187.931a.073.073 0 0 1-.086.055.074.074 0 0 1-.06-.082l.187-.93c.01-.037.046-.06.086-.055Zm-.213 1.058a.065.065 0 0 0 .073-.046l.186-.93a.064.064 0 0 0-.05-.073.065.065 0 0 0-.073.045l-.186.931c-.005.036.018.064.05.073Z" fill="#fff"></path><path d="M29.651 37.302c.037.01.06.045.05.082l-.113.408c-.01.037-.046.055-.082.046a.068.068 0 0 1-.05-.082l.114-.409c.009-.036.045-.054.081-.045Z" fill="#F3F3F3"></path><path d="M29.651 37.298c.037.009.064.05.05.086l-.113.409a.073.073 0 0 1-.087.05c-.036-.01-.063-.05-.05-.087l.114-.408c.01-.036.045-.06.086-.05Zm-.15.531c.032.01.069-.009.078-.04l.113-.41c.01-.031-.009-.063-.045-.072-.032-.01-.068.01-.077.04l-.114.41a.065.065 0 0 0 .046.072Z" fill="#fff"></path><path d="M29.429 36.662c.036.014.05.055.036.086l-.363.877c-.014.032-.055.05-.087.032-.031-.019-.05-.055-.036-.087l.364-.876c.013-.032.054-.05.086-.032Z" fill="#F3F3F3"></path><path d="M29.429 36.657a.07.07 0 0 1 .04.091l-.363.877c-.013.036-.054.05-.095.036a.07.07 0 0 1-.04-.09l.362-.877c.019-.037.06-.055.096-.037Zm-.413.995c.031.014.068 0 .081-.032l.363-.876c.014-.032-.004-.064-.036-.077a.062.062 0 0 0-.081.031l-.364.877a.065.065 0 0 0 .037.077Z" fill="#fff"></path><path d="M28.816 36.953c.032.018.045.054.032.086l-.191.377a.066.066 0 0 1-.09.027c-.033-.018-.046-.055-.033-.086l.191-.377a.066.066 0 0 1 .09-.027Z" fill="#F3F3F3"></path><path d="M28.816 36.948a.07.07 0 0 1 .032.095l-.191.377a.07.07 0 0 1-.096.032.07.07 0 0 1-.031-.095l.19-.377a.07.07 0 0 1 .096-.032Zm-.25.495c.032.014.068.005.082-.027l.19-.377c.014-.028 0-.064-.027-.082-.032-.014-.068-.005-.081.027l-.191.377c-.014.027 0 .064.027.082Z" fill="#fff"></path><path d="M28.725 36.28c.032.023.04.064.018.091l-.527.786c-.018.032-.059.036-.09.018-.032-.022-.041-.063-.019-.09l.527-.786a.062.062 0 0 1 .09-.018Z" fill="#F3F3F3"></path><path d="M28.725 36.276c.032.022.04.068.023.1l-.527.785a.072.072 0 0 1-.1.018.078.078 0 0 1-.023-.1l.527-.785a.073.073 0 0 1 .1-.018Zm-.6.894c.028.018.069.014.087-.013l.527-.786a.06.06 0 0 0-.018-.082c-.028-.018-.069-.013-.087.014l-.526.781a.065.065 0 0 0 .018.086Z" fill="#fff"></path><path d="M28.062 36.449c.027.022.036.063.014.09l-.264.332a.065.065 0 0 1-.09.009c-.028-.023-.037-.064-.014-.09l.263-.332a.065.065 0 0 1 .09-.01Z" fill="#F3F3F3"></path><path d="M28.066 36.444c.032.023.037.068.014.1l-.263.332c-.023.031-.068.036-.1.009-.032-.023-.037-.069-.014-.1l.264-.332c.022-.032.068-.036.1-.009Zm-.34.432c.027.022.063.018.086-.01l.264-.331a.064.064 0 0 0-.014-.086c-.027-.023-.064-.018-.086.009l-.264.331c-.018.027-.013.068.014.087Z" fill="#fff"></path><path d="M28.107 35.767c.028.028.028.069 0 .091l-.672.668a.064.064 0 0 1-.09 0c-.023-.023-.028-.068 0-.091l.667-.668a.066.066 0 0 1 .095 0Z" fill="#F3F3F3"></path><path d="M28.112 35.763a.071.071 0 0 1 0 .1l-.672.667a.071.071 0 0 1-.1 0 .071.071 0 0 1 0-.1l.672-.667a.071.071 0 0 1 .1 0Zm-.767.763a.063.063 0 0 0 .086 0l.672-.668a.063.063 0 0 0 0-.086.063.063 0 0 0-.086 0l-.672.667c-.023.023-.023.06 0 .087Z" fill="#fff"></path><path d="M27.426 35.804c.023.027.023.068-.004.09l-.323.273a.065.065 0 0 1-.09-.009c-.023-.027-.023-.068.004-.09l.322-.273a.065.065 0 0 1 .091.009Z" fill="#F3F3F3"></path><path d="M27.43 35.799c.028.032.023.077-.004.1l-.322.272c-.027.028-.073.023-.1-.009-.027-.032-.023-.077.004-.1l.323-.272c.027-.027.073-.023.1.009Zm-.417.359c.023.027.059.027.086.009l.323-.273a.063.063 0 0 0 .004-.086c-.022-.027-.059-.027-.086-.01l-.323.273c-.027.023-.027.06-.004.087Z" fill="#fff"></path><path d="M27.608 35.15a.062.062 0 0 1-.018.09l-.79.527c-.032.018-.073.01-.091-.018a.061.061 0 0 1 .018-.09l.79-.527c.027-.019.068-.01.091.018Z" fill="#F3F3F3"></path><path d="M27.613 35.15a.073.073 0 0 1-.019.1l-.79.526a.07.07 0 0 1-.1-.022.073.073 0 0 1 .018-.1l.79-.527a.07.07 0 0 1 .1.023Zm-.9.595a.06.06 0 0 0 .082.018l.79-.527c.027-.018.037-.054.014-.086a.06.06 0 0 0-.082-.018l-.79.526a.064.064 0 0 0-.014.087Z" fill="#fff"></path><path d="M26.931 35.054a.066.066 0 0 1-.022.091l-.368.21c-.032.017-.073.004-.091-.028a.066.066 0 0 1 .023-.09l.367-.21c.032-.018.073-.004.091.027Z" fill="#F3F3F3"></path><path d="M26.936 35.05c.018.036.009.077-.023.095l-.368.21c-.032.017-.077.004-.095-.028-.018-.036-.01-.077.023-.095l.367-.21c.032-.017.078-.004.096.028Zm-.482.273c.019.031.055.04.082.022l.368-.209a.065.065 0 0 0 .023-.081c-.018-.032-.055-.041-.082-.023l-.368.209c-.027.013-.036.05-.023.081Z" fill="#fff"></path><path d="M27.236 34.45c.013.036 0 .073-.037.086l-.876.364c-.032.013-.073-.005-.086-.037-.014-.036 0-.072.036-.086l.876-.363a.065.065 0 0 1 .087.036Z" fill="#F3F3F3"></path><path d="M27.24 34.446a.075.075 0 0 1-.036.095l-.877.363a.07.07 0 0 1-.09-.04.075.075 0 0 1 .036-.096l.876-.363a.07.07 0 0 1 .091.04Zm-.994.413c.013.032.05.045.077.036l.876-.363a.062.062 0 0 0 .032-.082.065.065 0 0 0-.077-.036l-.877.363a.062.062 0 0 0-.031.082Z" fill="#fff"></path><path d="M26.595 34.224c.014.036-.004.072-.04.086l-.4.132c-.032.013-.073-.01-.082-.041-.014-.037.005-.073.041-.087l.4-.131c.031-.014.068.004.081.04Z" fill="#F3F3F3"></path><path d="M26.6 34.219a.07.07 0 0 1-.046.09l-.4.132c-.035.014-.076-.009-.09-.045a.07.07 0 0 1 .046-.091l.4-.132c.035-.009.076.01.09.046Zm-.527.172c.01.032.046.05.077.041l.4-.132c.032-.009.045-.045.036-.077-.009-.032-.045-.05-.077-.04l-.4.131a.063.063 0 0 0-.036.077Z" fill="#fff"></path><path d="M27.004 33.683c.009.036-.014.073-.05.077l-.931.182c-.036.009-.068-.018-.077-.055-.01-.036.013-.072.05-.077l.93-.181c.037-.005.073.018.078.054Z" fill="#F3F3F3"></path><path d="M27.013 33.683a.073.073 0 0 1-.055.086l-.93.182c-.037.009-.073-.018-.082-.06a.073.073 0 0 1 .054-.085l.931-.182c.037-.01.073.018.082.059Zm-1.058.204a.061.061 0 0 0 .068.05l.931-.181c.032-.005.054-.041.045-.073a.061.061 0 0 0-.068-.05l-.93.181c-.032.01-.055.041-.046.073Z" fill="#fff"></path><path d="M26.423 33.334c.004.036-.018.068-.055.072l-.418.05a.066.066 0 0 1-.072-.059c-.005-.036.018-.068.054-.073l.418-.05c.032-.004.068.023.073.06Z" fill="#F3F3F3"></path><path d="M26.427 33.333c.005.041-.022.077-.059.082l-.417.05a.07.07 0 0 1-.078-.064c-.004-.04.023-.077.06-.082l.417-.05a.07.07 0 0 1 .077.064Zm-.55.064c.005.032.037.059.069.054l.418-.05a.06.06 0 0 0 .05-.068c-.005-.032-.037-.059-.068-.054l-.418.05a.06.06 0 0 0-.05.068Z" fill="#fff"></path><path d="M26.931 32.893c0 .036-.027.068-.063.068h-.95c-.036 0-.063-.032-.063-.068 0-.037.027-.068.064-.068h.949c.036 0 .063.031.063.068Z" fill="#F3F3F3"></path><path d="M26.936 32.893c0 .04-.032.073-.068.073h-.95c-.036 0-.067-.032-.067-.073 0-.04.031-.073.068-.073h.949c.036 0 .068.032.068.073Zm-1.076-.005c0 .032.027.064.059.064h.949c.032 0 .059-.027.059-.064 0-.031-.027-.063-.06-.063h-.948c-.032.004-.06.032-.06.063Z" fill="#fff"></path><path d="M26.427 32.434c-.004.036-.032.064-.068.064l-.422-.032a.066.066 0 0 1-.06-.073c.005-.036.033-.063.069-.063l.422.031c.032.005.06.037.06.073Z" fill="#E2E2E2"></path><path d="M26.432 32.434a.074.074 0 0 1-.073.068l-.422-.032c-.037-.004-.068-.036-.064-.077a.074.074 0 0 1 .073-.068l.422.032c.037.005.064.04.064.077Zm-.554-.04a.057.057 0 0 0 .054.063l.423.032c.031 0 .059-.023.063-.06a.057.057 0 0 0-.054-.063l-.423-.032c-.031 0-.059.027-.063.06Z" fill="#fff"></path><path d="M27.013 32.103a.07.07 0 0 1-.077.054l-.931-.19c-.037-.01-.06-.041-.05-.077a.07.07 0 0 1 .077-.055l.931.186c.032.01.054.046.05.082Z" fill="#F3F3F3"></path><path d="M27.018 32.103a.074.074 0 0 1-.082.059l-.931-.186a.073.073 0 0 1-.054-.087.074.074 0 0 1 .081-.059l.931.186c.037.01.06.046.055.087Zm-1.058-.214a.065.065 0 0 0 .045.073l.93.186a.064.064 0 0 0 .074-.05.065.065 0 0 0-.046-.073l-.93-.186c-.037-.004-.064.018-.073.05Z" fill="#fff"></path><path d="M26.604 31.558a.068.068 0 0 1-.081.05l-.41-.114c-.035-.009-.054-.045-.044-.082a.068.068 0 0 1 .081-.05l.409.114c.036.009.054.045.045.082Z" fill="#F3F3F3"></path><path d="M26.609 31.558c-.01.036-.05.063-.086.05l-.409-.114a.072.072 0 0 1-.05-.086c.01-.036.05-.064.086-.05l.409.114c.036.009.059.045.05.086Zm-.531-.15c-.01.032.009.068.04.077l.41.114c.031.009.063-.01.072-.046.009-.032-.01-.068-.041-.077l-.409-.113a.065.065 0 0 0-.072.045Z" fill="#fff"></path><path d="M27.245 31.34c-.014.036-.055.05-.087.036l-.876-.363c-.032-.014-.05-.054-.037-.086.014-.037.055-.05.087-.037l.876.364c.037.013.05.054.037.086Z" fill="#F3F3F3"></path><path d="M27.25 31.345a.07.07 0 0 1-.092.04l-.876-.363c-.036-.013-.05-.054-.036-.095a.07.07 0 0 1 .09-.041l.877.363c.036.018.05.06.036.096Zm-.995-.414a.062.062 0 0 0 .032.082l.876.363c.032.014.064-.004.077-.036a.062.062 0 0 0-.032-.082l-.876-.363c-.032-.01-.068.005-.077.036Z" fill="#fff"></path><path d="M26.95 30.727c-.019.032-.055.045-.087.032l-.377-.191c-.032-.014-.045-.055-.027-.091.018-.032.055-.045.086-.032l.377.19c.032.02.046.06.027.092Z" fill="#F3F3F3"></path><path d="M26.954 30.731a.07.07 0 0 1-.095.032l-.377-.19a.07.07 0 0 1-.032-.096.07.07 0 0 1 .095-.032l.377.19c.037.014.05.06.032.096Zm-.49-.25c-.014.032-.005.068.027.082l.377.19c.027.014.063 0 .081-.026.014-.032.005-.069-.027-.082l-.381-.19a.056.056 0 0 0-.078.026Z" fill="#fff"></path><path d="M27.617 30.64c-.023.032-.06.041-.09.018l-.787-.522c-.031-.018-.036-.059-.018-.09a.061.061 0 0 1 .091-.019l.79.527c.027.018.037.06.014.086Z" fill="#F3F3F3"></path><path d="M27.622 30.645a.078.078 0 0 1-.1.023l-.786-.527a.072.072 0 0 1-.018-.1.079.079 0 0 1 .1-.023l.785.527c.037.023.041.068.019.1Zm-.895-.6c-.018.028-.014.069.014.087l.79.527a.06.06 0 0 0 .082-.018c.018-.028.013-.068-.014-.087l-.79-.526a.06.06 0 0 0-.082.018Z" fill="#fff"></path><path d="M27.449 29.982c-.023.027-.064.037-.091.014l-.332-.26a.065.065 0 0 1-.009-.09c.023-.027.064-.036.091-.014l.332.26a.065.065 0 0 1 .009.09Z" fill="#F3F3F3"></path><path d="M27.454 29.987c-.023.032-.069.036-.1.013l-.332-.259c-.032-.022-.036-.068-.013-.1.022-.031.068-.036.1-.013l.331.259c.032.023.036.068.014.1Zm-.436-.34c-.023.026-.018.063.009.085l.331.26a.064.064 0 0 0 .087-.014c.022-.028.018-.064-.01-.087l-.331-.258a.064.064 0 0 0-.086.013Z" fill="#fff"></path><path d="M28.126 30.027c-.028.028-.069.028-.091 0l-.677-.667a.064.064 0 0 1 0-.091c.027-.027.068-.027.09 0l.673.668a.065.065 0 0 1 .005.09Z" fill="#F3F3F3"></path><path d="M28.126 30.032a.071.071 0 0 1-.1 0l-.672-.668a.071.071 0 0 1 0-.1.071.071 0 0 1 .1 0l.672.668a.064.064 0 0 1 0 .1Zm-.763-.758a.063.063 0 0 0 0 .086l.672.668a.063.063 0 0 0 .086 0 .063.063 0 0 0 0-.087l-.672-.672c-.023-.023-.059-.023-.086.005Z" fill="#fff"></path><path d="M28.085 29.351c-.027.023-.068.023-.091-.004l-.277-.318a.065.065 0 0 1 .009-.091c.027-.023.068-.023.09.004l.278.318c.022.023.018.064-.01.091Z" fill="#F3F3F3"></path><path d="M28.09 29.35a.071.071 0 0 1-.1-.004l-.277-.318c-.028-.027-.023-.072.009-.1a.071.071 0 0 1 .1.005l.277.318c.022.032.022.077-.01.1Zm-.364-.413c-.027.023-.027.06-.009.087l.277.318a.063.063 0 0 0 .086.004c.028-.023.028-.059.01-.086l-.278-.318c-.022-.027-.059-.027-.086-.005Z" fill="#fff"></path><path d="M28.738 29.523a.061.061 0 0 1-.09-.018l-.532-.785c-.018-.032-.009-.073.018-.091a.062.062 0 0 1 .091.018l.527.786a.064.064 0 0 1-.014.09Z" fill="#F3F3F3"></path><path d="M28.739 29.528a.073.073 0 0 1-.1-.018l-.527-.786a.07.07 0 0 1 .023-.1.073.073 0 0 1 .1.019l.526.785a.07.07 0 0 1-.022.1Zm-.6-.894a.06.06 0 0 0-.018.081l.527.786c.018.027.054.032.086.014a.06.06 0 0 0 .018-.082l-.526-.781a.065.065 0 0 0-.087-.018Z" fill="#fff"></path><path d="M28.834 28.851a.066.066 0 0 1-.09-.022l-.21-.368c-.018-.032-.004-.073.027-.09a.066.066 0 0 1 .091.022l.21.368c.013.031.004.072-.028.09Z" fill="#F3F3F3"></path><path d="M28.834 28.856c-.036.018-.077.01-.095-.023l-.21-.367c-.017-.032-.008-.078.028-.096.036-.018.077-.009.095.023l.21.368c.018.031.008.072-.028.095Zm-.272-.481c-.028.018-.041.054-.023.081l.209.368a.065.065 0 0 0 .081.023c.028-.018.041-.055.023-.082l-.209-.368c-.013-.027-.054-.04-.081-.022Z" fill="#fff"></path><path d="M29.438 29.151c-.036.014-.073 0-.086-.032l-.368-.876c-.014-.032.004-.073.036-.086.037-.014.073 0 .086.031l.368.877c.014.032-.004.072-.036.086Z" fill="#F3F3F3"></path><path d="M29.438 29.156a.075.075 0 0 1-.095-.037l-.368-.876a.07.07 0 0 1 .04-.09.075.075 0 0 1 .096.036l.368.876c.013.032-.005.073-.041.09Zm-.413-.995c-.032.014-.046.05-.032.077l.368.877c.013.032.05.045.081.032.032-.014.046-.05.032-.078l-.368-.876c-.018-.032-.05-.045-.081-.032Z" fill="#fff"></path><path d="M29.66 28.506c-.036.014-.072-.004-.086-.04l-.132-.4c-.013-.032.01-.073.041-.082.032-.009.073.005.087.041l.131.4c.014.031-.004.068-.04.081Z" fill="#F3F3F3"></path><path d="M29.665 28.51a.07.07 0 0 1-.09-.04l-.133-.4c-.013-.036.01-.077.046-.09a.07.07 0 0 1 .09.04l.132.4a.077.077 0 0 1-.045.09Zm-.177-.521c-.032.009-.05.045-.041.077l.132.4c.009.031.045.045.077.036.032-.01.05-.046.04-.077l-.13-.4a.057.057 0 0 0-.078-.036Z" fill="#fff"></path><path d="M30.196 28.92c-.036.008-.073-.014-.077-.05l-.19-.931c-.01-.037.017-.069.054-.078.036-.009.072.014.077.05l.19.931a.073.073 0 0 1-.054.077Z" fill="#F3F3F3"></path><path d="M30.196 28.924a.073.073 0 0 1-.086-.055l-.19-.93c-.01-.037.017-.078.054-.082a.073.073 0 0 1 .086.054l.19.931c.01.037-.013.073-.054.082Zm-.213-1.058c-.032.004-.055.036-.05.073l.19.93c.005.032.041.055.073.046.032-.005.055-.037.05-.073l-.19-.93a.065.065 0 0 0-.073-.046Z" fill="#fff"></path><path d="M30.541 28.33a.07.07 0 0 1-.077-.055l-.054-.418a.066.066 0 0 1 .059-.073.07.07 0 0 1 .077.055l.054.418a.066.066 0 0 1-.059.072Z" fill="#F3F3F3"></path><path d="M30.541 28.334c-.04.004-.077-.023-.081-.06l-.055-.417a.07.07 0 0 1 .064-.077c.04-.005.077.022.082.059l.054.418a.07.07 0 0 1-.064.077Zm-.068-.545c-.031.004-.059.036-.054.068l.054.418a.06.06 0 0 0 .069.05c.031-.005.058-.037.054-.068l-.055-.418a.06.06 0 0 0-.068-.05Z" fill="#fff"></path><path d="M31.032 38.279a5.377 5.377 0 1 0 0-10.754 5.377 5.377 0 0 0 0 10.754Z" fill="url(#cross-browser-compatibility_svg__D)" fill-opacity="0.2"></path><path d="m34.755 29.491-4.336 2.78h-.005v.004l-.004.004-2.707 4.464 3.978-3.201.005-.005v-.004l3.07-4.042Z" fill="#000" fill-opacity="0.05"></path><path d="m34.674 29.232-4.287 3.047 1.271 1.263 3.016-4.31Z" fill="#CD151E"></path><path d="m30.392 32.27.64.632 3.642-3.67-4.282 3.038Z" fill="#FA5153"></path><path d="m30.392 32.27 1.27 1.263-4.286 3.047 3.015-4.31Z" fill="#ACACAC"></path><path d="m27.376 36.58 3.656-3.678-.64-.632-3.016 4.31Z" fill="#EEE"></path></g><rect x="0.5" y="0.5" width="41" height="41" rx="5.5" stroke="#714EFF"></rect><defs><linearGradient id="cross-browser-compatibility_svg__b" x1="15.546" y1="13.625" x2="10.351" y2="22.624" gradientUnits="userSpaceOnUse"><stop stop-color="#D93025"></stop><stop offset="1" stop-color="#EA4335"></stop></linearGradient><linearGradient id="cross-browser-compatibility_svg__c" x1="16.537" y1="14.75" x2="6.146" y2="14.75" gradientUnits="userSpaceOnUse"><stop stop-color="#FCC934"></stop><stop offset="1" stop-color="#FBBC04"></stop></linearGradient><linearGradient id="cross-browser-compatibility_svg__d" x1="11.65" y1="22.625" x2="6.454" y2="13.627" gradientUnits="userSpaceOnUse"><stop stop-color="#1E8E3E"></stop><stop offset="1" stop-color="#34A853"></stop></linearGradient><linearGradient id="cross-browser-compatibility_svg__h" x1="31.593" y1="19.893" x2="29.258" y2="12.256" gradientUnits="userSpaceOnUse"><stop stop-color="#000F43" stop-opacity="0.4"></stop><stop offset="0.485" stop-color="#001962" stop-opacity="0.173"></stop><stop offset="1" stop-color="#002079" stop-opacity="0"></stop></linearGradient><linearGradient id="cross-browser-compatibility_svg__n" x1="25.224" y1="15.696" x2="29.558" y2="15.038" gradientUnits="userSpaceOnUse"><stop stop-color="#C42482" stop-opacity="0.5"></stop><stop offset="0.474" stop-color="#FF272D" stop-opacity="0.5"></stop><stop offset="0.486" stop-color="#FF2C2C" stop-opacity="0.513"></stop><stop offset="0.675" stop-color="#FF7A1A" stop-opacity="0.72"></stop><stop offset="0.829" stop-color="#FFB20D" stop-opacity="0.871"></stop><stop offset="0.942" stop-color="#FFD605" stop-opacity="0.964"></stop><stop offset="1" stop-color="#FFE302"></stop></linearGradient><linearGradient id="cross-browser-compatibility_svg__o" x1="26.747" y1="14.145" x2="26.255" y2="12.381" gradientUnits="userSpaceOnUse"><stop stop-color="#891551" stop-opacity="0.6"></stop><stop offset="1" stop-color="#C42482" stop-opacity="0"></stop></linearGradient><linearGradient id="cross-browser-compatibility_svg__p" x1="27.689" y1="16.721" x2="28.701" y2="18.133" gradientUnits="userSpaceOnUse"><stop offset="0.005" stop-color="#891551" stop-opacity="0.5"></stop><stop offset="0.484" stop-color="#FF272D" stop-opacity="0.5"></stop><stop offset="1" stop-color="#FF272D" stop-opacity="0"></stop></linearGradient><linearGradient id="cross-browser-compatibility_svg__q" x1="29.622" y1="19.196" x2="29.714" y2="18.289" gradientUnits="userSpaceOnUse"><stop stop-color="#C42482"></stop><stop offset="0.083" stop-color="#C42482" stop-opacity="0.81"></stop><stop offset="0.206" stop-color="#C42482" stop-opacity="0.565"></stop><stop offset="0.328" stop-color="#C42482" stop-opacity="0.362"></stop><stop offset="0.447" stop-color="#C42482" stop-opacity="0.204"></stop><stop offset="0.562" stop-color="#C42482" stop-opacity="0.091"></stop><stop offset="0.673" stop-color="#C42482" stop-opacity="0.023"></stop><stop offset="0.773" stop-color="#C42482" stop-opacity="0"></stop></linearGradient><linearGradient id="cross-browser-compatibility_svg__r" x1="32.567" y1="11.44" x2="36.295" y2="19.776" gradientUnits="userSpaceOnUse"><stop stop-color="#FFF14F"></stop><stop offset="0.268" stop-color="#FFEE4C"></stop><stop offset="0.452" stop-color="#FFE643"></stop><stop offset="0.612" stop-color="#FFD834"></stop><stop offset="0.757" stop-color="#FFC41E"></stop><stop offset="0.892" stop-color="#FFAB02"></stop><stop offset="0.902" stop-color="#FFA900"></stop><stop offset="0.949" stop-color="#FFA000"></stop><stop offset="1" stop-color="#FF9100"></stop></linearGradient><linearGradient id="cross-browser-compatibility_svg__s" x1="33.303" y1="16.235" x2="31.537" y2="20.976" gradientUnits="userSpaceOnUse"><stop stop-color="#FF8E00"></stop><stop offset="0.04" stop-color="#FF8E00" stop-opacity="0.858"></stop><stop offset="0.084" stop-color="#FF8E00" stop-opacity="0.729"></stop><stop offset="0.13" stop-color="#FF8E00" stop-opacity="0.628"></stop><stop offset="0.178" stop-color="#FF8E00" stop-opacity="0.557"></stop><stop offset="0.227" stop-color="#FF8E00" stop-opacity="0.514"></stop><stop offset="0.282" stop-color="#FF8E00" stop-opacity="0.5"></stop><stop offset="0.389" stop-color="#FF8E00" stop-opacity="0.478"></stop><stop offset="0.524" stop-color="#FF8E00" stop-opacity="0.416"></stop><stop offset="0.676" stop-color="#FF8E00" stop-opacity="0.314"></stop><stop offset="0.838" stop-color="#FF8E00" stop-opacity="0.172"></stop><stop offset="1" stop-color="#FF8E00" stop-opacity="0"></stop></linearGradient><linearGradient id="cross-browser-compatibility_svg__u" x1="7.752" y1="35.299" x2="16.112" y2="35.299" gradientUnits="userSpaceOnUse"><stop stop-color="#0C59A4"></stop><stop offset="1" stop-color="#114A8B"></stop></linearGradient><linearGradient id="cross-browser-compatibility_svg__w" x1="12.159" y1="31.673" x2="6.938" y2="37.36" gradientUnits="userSpaceOnUse"><stop stop-color="#1B9DE2"></stop><stop offset="0.16" stop-color="#1595DF"></stop><stop offset="0.67" stop-color="#0680D7"></stop><stop offset="1" stop-color="#0078D4"></stop></linearGradient><linearGradient id="cross-browser-compatibility_svg__B" x1="1513.19" y1="3003.09" x2="1513.19" y2="27.094" gradientUnits="userSpaceOnUse"><stop offset="0.25" stop-color="#DBDBDA"></stop><stop offset="1" stop-color="#fff"></stop></linearGradient><linearGradient id="cross-browser-compatibility_svg__D" x1="1375.91" y1="1010.37" x2="733.48" y2="2162.92" gradientUnits="userSpaceOnUse"><stop stop-opacity="0"></stop><stop offset="1"></stop></linearGradient><radialGradient id="cross-browser-compatibility_svg__f" cx="0" cy="0" r="1" gradientUnits="userSpaceOnUse" gradientTransform="matrix(4.1897 .18696 -.27483 6.1588 36.078 14)"><stop offset="0.045" stop-color="#FFEA00"></stop><stop offset="0.12" stop-color="#FFDE00"></stop><stop offset="0.254" stop-color="#FFBF00"></stop><stop offset="0.429" stop-color="#FF8E00"></stop><stop offset="0.769" stop-color="#FF272D"></stop><stop offset="0.872" stop-color="#E0255A"></stop><stop offset="0.953" stop-color="#CC2477"></stop><stop offset="1" stop-color="#C42482"></stop></radialGradient><radialGradient id="cross-browser-compatibility_svg__g" cx="0" cy="0" r="1" gradientUnits="userSpaceOnUse" gradientTransform="matrix(11.82 0 0 11.8211 33.087 13.355)"><stop stop-color="#00CCDA"></stop><stop offset="0.22" stop-color="#0083FF"></stop><stop offset="0.261" stop-color="#007AF9"></stop><stop offset="0.33" stop-color="#0060E8"></stop><stop offset="0.333" stop-color="#005FE7"></stop><stop offset="0.438" stop-color="#2639AD"></stop><stop offset="0.522" stop-color="#401E84"></stop><stop offset="0.566" stop-color="#4A1475"></stop></radialGradient><radialGradient id="cross-browser-compatibility_svg__i" cx="0" cy="0" r="1" gradientUnits="userSpaceOnUse" gradientTransform="rotate(5.67 -155.92 360.504) scale(3.98689 3.98726)"><stop offset="0.003" stop-color="#FFEA00"></stop><stop offset="0.497" stop-color="#FF272D"></stop><stop offset="1" stop-color="#C42482"></stop></radialGradient><radialGradient id="cross-browser-compatibility_svg__j" cx="0" cy="0" r="1" gradientUnits="userSpaceOnUse" gradientTransform="rotate(5.67 -117.14 358.778) scale(6.65787 6.6584)"><stop offset="0.003" stop-color="#FFE900"></stop><stop offset="0.157" stop-color="#FFAF0E"></stop><stop offset="0.316" stop-color="#FF7A1B"></stop><stop offset="0.472" stop-color="#FF4E26"></stop><stop offset="0.621" stop-color="#FF2C2E"></stop><stop offset="0.762" stop-color="#FF1434"></stop><stop offset="0.892" stop-color="#FF0538"></stop><stop offset="1" stop-color="#FF0039"></stop></radialGradient><radialGradient id="cross-browser-compatibility_svg__k" cx="0" cy="0" r="1" gradientUnits="userSpaceOnUse" gradientTransform="rotate(5.67 -179.928 365.2) scale(6.10926 6.10974)"><stop offset="0.003" stop-color="#FF272D"></stop><stop offset="0.497" stop-color="#C42482"></stop><stop offset="0.986" stop-color="#620700"></stop></radialGradient><radialGradient id="cross-browser-compatibility_svg__l" cx="0" cy="0" r="1" gradientUnits="userSpaceOnUse" gradientTransform="matrix(9.53867 0 0 9.53956 33.722 15.806)"><stop offset="0.156" stop-color="#FFEA00"></stop><stop offset="0.231" stop-color="#FFDE00"></stop><stop offset="0.365" stop-color="#FFBF00"></stop><stop offset="0.541" stop-color="#FF8E00"></stop><stop offset="0.763" stop-color="#FF272D"></stop><stop offset="0.796" stop-color="#F92433"></stop><stop offset="0.841" stop-color="#E91C45"></stop><stop offset="0.893" stop-color="#CF0E62"></stop><stop offset="0.935" stop-color="#B5007F"></stop></radialGradient><radialGradient id="cross-browser-compatibility_svg__m" cx="0" cy="0" r="1" gradientUnits="userSpaceOnUse" gradientTransform="matrix(11.2635 0 0 11.2645 33.004 11.015)"><stop offset="0.279" stop-color="#FFEA00"></stop><stop offset="0.402" stop-color="#FD0"></stop><stop offset="0.63" stop-color="#FFBA00"></stop><stop offset="0.856" stop-color="#FF9100"></stop><stop offset="0.933" stop-color="#FF6711"></stop><stop offset="0.994" stop-color="#FF4A1D"></stop></radialGradient><radialGradient id="cross-browser-compatibility_svg__v" cx="0" cy="0" r="1" gradientUnits="userSpaceOnUse" gradientTransform="matrix(4.47065 0 0 4.24712 12.37 35.364)"><stop offset="0.72" stop-opacity="0"></stop><stop offset="0.95" stop-opacity="0.53"></stop><stop offset="1"></stop></radialGradient><radialGradient id="cross-browser-compatibility_svg__x" cx="0" cy="0" r="1" gradientUnits="userSpaceOnUse" gradientTransform="matrix(1.00709 -6.64683 5.36996 .81363 8.309 36.328)"><stop offset="0.76" stop-opacity="0"></stop><stop offset="0.95" stop-opacity="0.5"></stop><stop offset="1"></stop></radialGradient><radialGradient id="cross-browser-compatibility_svg__y" cx="0" cy="0" r="1" gradientUnits="userSpaceOnUse" gradientTransform="rotate(92.291 -10.931 17.595) scale(9.4959 20.2243)"><stop stop-color="#35C1F1"></stop><stop offset="0.11" stop-color="#34C1ED"></stop><stop offset="0.23" stop-color="#2FC2DF"></stop><stop offset="0.31" stop-color="#2BC3D2"></stop><stop offset="0.67" stop-color="#36C752"></stop></radialGradient><radialGradient id="cross-browser-compatibility_svg__z" cx="0" cy="0" r="1" gradientUnits="userSpaceOnUse" gradientTransform="rotate(73.74 -12.292 26.15) scale(4.56253 3.71025)"><stop stop-color="#66EB6E"></stop><stop offset="1" stop-color="#66EB6E" stop-opacity="0"></stop></radialGradient><radialGradient id="cross-browser-compatibility_svg__C" cx="0" cy="0" r="1" gradientUnits="userSpaceOnUse" gradientTransform="translate(1595.42 1101.58) scale(1680.08)"><stop stop-color="#2ABCE1"></stop><stop offset="0.114" stop-color="#2ABBE1"></stop><stop offset="1" stop-color="#3375F8"></stop></radialGradient><clipPath id="cross-browser-compatibility_svg__a"><path fill="#fff" transform="translate(5 11)" d="M0 0h12v12H0z"></path></clipPath><clipPath id="cross-browser-compatibility_svg__e"><path fill="#fff" transform="translate(25 11)" d="M0 0h12v12H0z"></path></clipPath><clipPath id="cross-browser-compatibility_svg__t"><path fill="#fff" transform="translate(5 27)" d="M0 0h12v12H0z"></path></clipPath><clipPath id="cross-browser-compatibility_svg__A"><path fill="#fff" transform="translate(25 27)" d="M0 0h12v12H0z"></path></clipPath></defs></svg>