<svg width="42" height="42" fill="none" xmlns="http://www.w3.org/2000/svg"><path d="M30.417 27.494a7.156 7.156 0 0 0-3.203.76c-.331-.668-.662-1.251-.717-1.688-.063-.507-.139-.816-.063-1.42.076-.606.421-1.464.421-1.534-.007-.058-.076-.372-.786-.38-.711-.006-1.325.147-1.395.332-.069.19-.207.625-.296 1.075-.125.66-1.422 3.003-2.16 4.233-.242-.477-.45-.9-.49-1.237-.063-.507-.139-.816-.063-1.421.076-.605.421-1.464.421-1.533-.007-.059-.076-.372-.786-.38-.711-.007-1.326.147-1.395.331-.069.19-.145.64-.296 1.076-.145.436-1.87 4.345-2.32 5.365-.227.52-.427.936-.572 1.216-.145.28-.007.014-.02.044l-.194.372v.007c-.097.176-.2.344-.249.344-.034 0-.103-.472.014-1.118.255-1.357.877-3.473.87-3.55 0-.03.117-.41-.4-.598-.504-.19-.684.132-.725.132-.042 0-.076.117-.076.117s.559-2.384-1.07-2.384c-1.021 0-2.43 1.132-3.126 2.166-.442.246-1.38.766-2.374 1.322-.38.211-.773.437-1.146.64l-.076-.087c-1.974-2.145-5.625-3.664-5.473-6.547.055-1.047.414-3.811 7.012-7.158 5.404-2.743 9.731-1.99 10.484-.317 1.07 2.391-2.312 6.835-7.93 7.475-2.14.246-3.265-.598-3.548-.914-.296-.331-.338-.344-.448-.281-.18.102-.07.394 0 .57.165.442.855 1.23 2.029 1.624 1.028.344 3.54.535 6.577-.66 3.402-1.344 6.06-5.07 5.28-8.186-.794-3.171-5.956-4.212-10.836-2.447-2.905 1.055-6.053 2.7-8.316 4.859-2.692 2.56-3.12 4.796-2.94 5.724.628 3.312 5.107 5.47 6.901 7.067-.09.044-.172.103-.248.147-.897.45-4.314 2.27-5.17 4.197-.966 2.18.152 3.749.898 3.96 2.305.653 4.665-.52 5.942-2.455 1.27-1.933 1.118-4.444.531-5.59l-.02-.044.704-.422c.455-.274.904-.527 1.297-.745-.22.612-.38 1.336-.462 2.39-.097 1.238.4 2.841 1.056 3.474.29.274.635.281.849.281.759 0 1.104-.64 1.483-1.406.47-.936.884-2.018.884-2.018s-.518 2.932.897 2.932c.518 0 1.035-.682 1.27-1.034v.007s.014-.015.041-.073a2.6 2.6 0 0 0 .083-.132v-.014a56.53 56.53 0 0 0 1.36-2.588c.89-1.786 1.746-4.022 1.746-4.022s.083.548.338 1.449c.152.534.483 1.117.738 1.687-.207.296-.33.465-.33.465l.006.007a19.24 19.24 0 0 1-.545.703c-.704.858-1.546 1.835-1.656 2.117-.132.33-.104.577.151.773.187.146.518.168.87.146a3.871 3.871 0 0 0 1.298-.301 4.641 4.641 0 0 0 1.118-.598c.69-.52 1.11-1.258 1.07-2.243-.021-.542-.194-1.075-.408-1.582.062-.088.124-.183.186-.281 1.09-1.625 1.933-3.411 1.933-3.411s.083.55.338 1.449c.131.457.393.956.628 1.448-1.021.852-1.663 1.836-1.884 2.483-.407 1.195-.09 1.737.51 1.863.27.059.656-.073.946-.196a4.207 4.207 0 0 0 1.194-.626c.69-.52 1.353-1.245 1.319-2.222a4.333 4.333 0 0 0-.297-1.315c.87-.366 1.994-.577 3.423-.401 3.071.366 3.678 2.32 3.561 3.136-.117.816-.759 1.265-.973 1.406-.214.132-.283.183-.262.281.027.148.124.147.31.117.256-.044 1.615-.668 1.67-2.172.083-1.934-1.718-4.044-4.913-4.023v-.015ZM6.73 35.629c-1.014 1.133-2.443 1.562-3.05 1.196-.656-.387-.4-2.054.849-3.256.759-.731 1.746-1.406 2.394-1.821.145-.088.366-.226.629-.387.04-.03.069-.044.069-.044.048-.03.103-.059.158-.102.463 1.715.021 3.22-1.049 4.409v.005Zm7.42-5.14c-.353.879-1.098 3.136-1.546 3.01-.387-.103-.622-1.814-.077-3.502.277-.851.863-1.864 1.208-2.257.56-.633 1.167-.844 1.319-.585.179.338-.684 2.786-.905 3.334Zm6.121 2.982c-.152.073-.29.132-.352.088-.048-.03.062-.132.062-.132s.766-.837 1.07-1.223c.173-.225.38-.485.6-.781v.088c0 1.012-.952 1.685-1.38 1.96Zm4.72-1.097c-.11-.088-.096-.345.277-1.16.145-.324.476-.865 1.049-1.38.069.212.11.416.104.606-.007 1.265-.89 1.737-1.43 1.933Z" fill="#CF649A"></path><path d="M27.27 20.12c.295.036.593.038.888.004l.325.597a.43.43 0 0 0 .539.197l.936-.383a.433.433 0 0 0 .248-.52l-.18-.65a3.76 3.76 0 0 0 .657-.651l.65.194a.424.424 0 0 0 .514-.247l.388-.946a.442.442 0 0 0-.187-.549l-.569-.327a3.94 3.94 0 0 0 .01-.997l.56-.312a.437.437 0 0 0 .19-.545l-.387-.954a.43.43 0 0 0-.515-.257l-.61.168a3.829 3.829 0 0 0-.683-.707l.167-.591a.441.441 0 0 0-.247-.525l-.936-.403a.423.423 0 0 0-.54.185l-.292.529a3.712 3.712 0 0 0-.956-.017l-.287-.527a.43.43 0 0 0-.54-.196l-.933.382a.433.433 0 0 0-.249.52l.157.562c-.27.204-.51.444-.718.714l-.564-.168a.424.424 0 0 0-.514.246l-.388.946a.442.442 0 0 0 .187.55l.512.294c-.046.35-.043.703.007 1.053l-.52.289a.437.437 0 0 0-.19.545l.387.953a.43.43 0 0 0 .515.258l.605-.168c.2.258.433.488.691.685l-.174.612a.442.442 0 0 0 .248.524l.936.403c.2.087.432.008.54-.185l.322-.584Zm-1.124-4.518a1.655 1.655 0 0 1 2.19-.897 1.725 1.725 0 0 1 .904 2.23 1.655 1.655 0 0 1-2.19.898 1.725 1.725 0 0 1-.904-2.23Z" fill="#714EFF"></path><path d="m32.814 7.406-.626.321a.432.432 0 0 0-.203.536l.143.388c-.208.186-.39.401-.54.638l-.41-.084a.424.424 0 0 0-.49.288l-.214.68a.44.44 0 0 0 .23.528l.379.178c-.014.291.012.582.077.865l-.354.238a.435.435 0 0 0-.141.557l.325.64c.1.196.327.287.529.21l.425-.158c.182.197.387.37.611.515l-.086.45a.44.44 0 0 0 .288.5l.67.223c.206.068.43-.029.519-.229l.198-.442c.245.01.489-.01.729-.06l.27.412a.425.425 0 0 0 .55.149l.625-.322a.432.432 0 0 0 .203-.536l-.169-.46c.188-.172.355-.367.495-.58l.481.1a.424.424 0 0 0 .49-.289l.214-.679a.44.44 0 0 0-.23-.529l-.43-.201a3.257 3.257 0 0 0-.06-.82l.386-.26c.18-.122.24-.36.141-.557l-.322-.638a.425.425 0 0 0-.529-.211l-.425.16a3.124 3.124 0 0 0-.608-.532l.083-.434a.44.44 0 0 0-.288-.5l-.67-.222a.422.422 0 0 0-.52.229l-.176.394a3.045 3.045 0 0 0-.786.054l-.235-.358a.422.422 0 0 0-.55-.152Zm2.728 4.083a1.363 1.363 0 0 1-1.733.892 1.417 1.417 0 0 1-.892-1.768 1.363 1.363 0 0 1 1.733-.892 1.417 1.417 0 0 1 .892 1.768Z" fill="#fff"></path><path d="m32.814 7.406-.626.321a.432.432 0 0 0-.203.536l.143.388c-.208.186-.39.401-.54.638l-.41-.084a.424.424 0 0 0-.49.288l-.214.68a.44.44 0 0 0 .23.528l.379.178c-.014.291.012.582.077.865l-.354.238a.435.435 0 0 0-.141.557l.325.64c.1.196.327.287.529.21l.425-.158c.182.197.387.37.611.515l-.086.45a.44.44 0 0 0 .288.5l.67.223c.206.068.43-.029.519-.229l.198-.442c.245.01.489-.01.729-.06l.27.412a.425.425 0 0 0 .55.149l.625-.322a.432.432 0 0 0 .203-.536l-.169-.46c.188-.172.355-.367.495-.58l.481.1a.424.424 0 0 0 .49-.289l.214-.679a.44.44 0 0 0-.23-.529l-.43-.201a3.257 3.257 0 0 0-.06-.82l.386-.26c.18-.122.24-.36.141-.557l-.322-.638a.425.425 0 0 0-.529-.211l-.425.16a3.124 3.124 0 0 0-.608-.532l.083-.434a.44.44 0 0 0-.288-.5l-.67-.222a.422.422 0 0 0-.52.229l-.176.394a3.045 3.045 0 0 0-.786.054l-.235-.358a.422.422 0 0 0-.55-.152Zm2.728 4.083a1.363 1.363 0 0 1-1.733.892 1.417 1.417 0 0 1-.892-1.768 1.363 1.363 0 0 1 1.733-.892 1.417 1.417 0 0 1 .892 1.768Z" fill="#714EFF" fill-opacity="0.5"></path><path d="M33.856 20.106c-.06.205.041.426.236.511l.387.173a.41.41 0 0 0 .526-.173l.155-.273c.194.027.388.03.582.009l.15.284c.102.19.324.275.521.197l.392-.155a.42.42 0 0 0 .247-.501l-.082-.308c.163-.122.309-.262.435-.42l.309.096a.41.41 0 0 0 .501-.234l.166-.392a.427.427 0 0 0-.175-.534l-.265-.157c.033-.216.037-.434.014-.652l.264-.143a.421.421 0 0 0 .189-.527l-.157-.398a.418.418 0 0 0-.496-.256l-.282.074a2.474 2.474 0 0 0-.442-.469l.08-.269a.428.428 0 0 0-.235-.511l-.388-.173a.41.41 0 0 0-.525.173l-.136.238a2.473 2.473 0 0 0-.626-.02l-.126-.238a.416.416 0 0 0-.52-.197l-.392.155a.42.42 0 0 0-.248.501l.066.25a2.437 2.437 0 0 0-.475.461l-.252-.079a.41.41 0 0 0-.502.234l-.166.392a.428.428 0 0 0 .175.535l.227.134c-.032.228-.033.46-.004.689l-.236.126a.421.421 0 0 0-.19.526l.158.402c.08.2.291.31.496.255l.281-.074c.13.169.279.323.447.454l-.084.284Zm.603-2.73a1.083 1.083 0 0 1 1.44-.569c.556.247.813.905.575 1.467a1.082 1.082 0 0 1-1.44.57 1.129 1.129 0 0 1-.575-1.467Z" fill="#fff"></path><path d="M33.856 20.106c-.06.205.041.426.236.511l.387.173a.41.41 0 0 0 .526-.173l.155-.273c.194.027.388.03.582.009l.15.284c.102.19.324.275.521.197l.392-.155a.42.42 0 0 0 .247-.501l-.082-.308c.163-.122.309-.262.435-.42l.309.096a.41.41 0 0 0 .501-.234l.166-.392a.427.427 0 0 0-.175-.534l-.265-.157c.033-.216.037-.434.014-.652l.264-.143a.421.421 0 0 0 .189-.527l-.157-.398a.418.418 0 0 0-.496-.256l-.282.074a2.474 2.474 0 0 0-.442-.469l.08-.269a.428.428 0 0 0-.235-.511l-.388-.173a.41.41 0 0 0-.525.173l-.136.238a2.473 2.473 0 0 0-.626-.02l-.126-.238a.416.416 0 0 0-.52-.197l-.392.155a.42.42 0 0 0-.248.501l.066.25a2.437 2.437 0 0 0-.475.461l-.252-.079a.41.41 0 0 0-.502.234l-.166.392a.428.428 0 0 0 .175.535l.227.134c-.032.228-.033.46-.004.689l-.236.126a.421.421 0 0 0-.19.526l.158.402c.08.2.291.31.496.255l.281-.074c.13.169.279.323.447.454l-.084.284Zm.603-2.73a1.083 1.083 0 0 1 1.44-.569c.556.247.813.905.575 1.467a1.082 1.082 0 0 1-1.44.57 1.129 1.129 0 0 1-.575-1.467Z" fill="#CF649A" fill-opacity="0.5"></path></svg>