<svg xmlns="http://www.w3.org/2000/svg" width="24" height="24" viewBox="0 0 20 21" fill="none"><path fill-rule="evenodd" clip-rule="evenodd" d="M10.0083 0.580078C4.47395 0.580078 0 5.1634 0 10.8335C0 15.3661 2.86662 19.2027 6.84337 20.5606C7.34057 20.6627 7.5227 20.34 7.5227 20.0685C7.5227 19.8308 7.50631 19.0161 7.50631 18.1671C4.72225 18.7784 4.14249 16.9448 4.14249 16.9448C3.69507 15.7565 3.03215 15.4511 3.03215 15.4511C2.12093 14.8229 3.09853 14.8229 3.09853 14.8229C4.10931 14.8908 4.63969 15.8754 4.63969 15.8754C5.53432 17.4371 6.97593 16.9958 7.55588 16.7242C7.63865 16.0621 7.90395 15.6037 8.18563 15.3492C5.96515 15.1115 3.62891 14.2287 3.62891 10.2903C3.62891 9.16982 4.02634 8.25317 4.65607 7.54026C4.55673 7.28568 4.20866 6.23297 4.75565 4.82402C4.75565 4.82402 5.60069 4.55235 7.5061 5.87651C8.32187 5.65207 9.16318 5.5379 10.0083 5.53693C10.8534 5.53693 11.7147 5.6559 12.5103 5.87651C14.4158 4.55235 15.2609 4.82402 15.2609 4.82402C15.8079 6.23297 15.4595 7.28568 15.3603 7.54026C16.0065 8.25317 16.3876 9.16982 16.3876 10.2903C16.3876 14.2287 14.0515 15.0944 11.8144 15.3492C12.179 15.6716 12.4936 16.2827 12.4936 17.2504C12.4936 18.6254 12.4773 19.729 12.4773 20.0684C12.4773 20.34 12.6595 20.6627 13.1565 20.5608C17.1334 19.2025 19.9999 15.3661 19.9999 10.8335C20.0164 5.1634 15.526 0.580078 10.0083 0.580078Z" fill="#75757F"></path></svg>